<svg width="51" height="51" viewBox="0 0 51 51" fill="none" xmlns="http://www.w3.org/2000/svg">
<path d="M26 1L30.2 8.95997L37.6181 3.8636L37.6378 12.8636L46.5746 11.7984L42.4095 19.7767L50.8177 22.9866L43.422 28.1154L49.3754 34.8651L40.4434 35.9695L42.5781 44.7128L34.1559 41.5398L31.9829 50.2735L26 43.55L20.0171 50.2735L17.8441 41.5398L9.42193 44.7128L11.5566 35.9695L2.62459 34.8651L8.57796 28.1154L1.18228 22.9866L9.59046 19.7767L5.4254 11.7984L14.3622 12.8636L14.3819 3.8636L21.8 8.95997L26 1Z" fill="#185853"/>
<path d="M26 1L30.2 8.95997L37.6181 3.8636L37.6378 12.8636L46.5746 11.7984L42.4095 19.7767L50.8177 22.9866L43.422 28.1154L49.3754 34.8651L40.4434 35.9695L42.5781 44.7128L34.1559 41.5398L31.9829 50.2735L26 43.55L20.0171 50.2735L17.8441 41.5398L9.42193 44.7128L11.5566 35.9695L2.62459 34.8651L8.57796 28.1154L1.18228 22.9866L9.59046 19.7767L5.4254 11.7984L14.3622 12.8636L14.3819 3.8636L21.8 8.95997L26 1Z" fill="#CE0C48"/>
<path d="M28.7393 15.6719L28.1094 30.2471H24.2129L23.583 15.6719H28.7393ZM23.4951 34.7881C23.4951 34.085 23.7393 33.499 24.2275 33.0303C24.7158 32.5518 25.3408 32.3125 26.1025 32.3125C26.8838 32.3125 27.5088 32.5518 27.9775 33.0303C28.4561 33.499 28.6953 34.085 28.6953 34.7881C28.6953 35.4912 28.4561 36.082 27.9775 36.5605C27.5088 37.0293 26.8838 37.2637 26.1025 37.2637C25.3408 37.2637 24.7158 37.0293 24.2275 36.5605C23.7393 36.082 23.4951 35.4912 23.4951 34.7881Z" fill="white"/>
</svg>
