<svg width="36" height="37" viewBox="0 0 36 37" fill="none" xmlns="http://www.w3.org/2000/svg">
<circle cx="18" cy="18.1406" r="18" fill="#CE0C48"/>
<path d="M20.7393 7.81226L20.1094 22.3875H16.2129L15.583 7.81226L20.7393 7.81226ZM15.4951 26.9285C15.4951 26.2253 15.7393 25.6394 16.2275 25.1707C16.7158 24.6921 17.3408 24.4529 18.1025 24.4529C18.8838 24.4529 19.5088 24.6921 19.9775 25.1707C20.4561 25.6394 20.6953 26.2253 20.6953 26.9285C20.6953 27.6316 20.4561 28.2224 19.9775 28.7009C19.5088 29.1697 18.8838 29.4041 18.1025 29.4041C17.3408 29.4041 16.7158 29.1697 16.2275 28.7009C15.7393 28.2224 15.4951 27.6316 15.4951 26.9285Z" fill="white"/>
</svg>
