<svg width="85" height="140" viewBox="0 0 85 140" fill="none" xmlns="http://www.w3.org/2000/svg">
<path d="M71.1076 17.4627L70.4797 17.0527L70.4798 17.0525L71.1076 17.4627ZM67.1556 67.3224L67.883 67.1395L67.8831 67.1398L67.1556 67.3224ZM73.6721 89.9023L74.3931 89.6957L74.3931 89.6958L73.6721 89.9023ZM77.1038 110.766L77.8016 111.041L77.8015 111.041L77.1038 110.766ZM35.9609 102.684L36.438 102.106L36.4381 102.106L35.9609 102.684ZM24.6005 87.3658L25.3219 87.1607L25.3221 87.1616L24.6005 87.3658ZM29.3453 75.2925L29.418 76.039L29.4171 76.0391L29.3453 75.2925ZM38.1909 79.3957L38.6981 78.8433L38.6982 78.8434L38.1909 79.3957ZM55.4731 105.246L56.181 104.998L56.1812 104.998L55.4731 105.246ZM27.326 138.668L27.2212 139.41L27.2209 139.41L27.326 138.668ZM0.280426 128.422C0.163651 128.025 0.391159 127.608 0.788574 127.491L7.26482 125.589C7.66224 125.472 8.07906 125.699 8.19583 126.097C8.3126 126.494 8.08509 126.911 7.68768 127.028L1.93101 128.719L3.62241 134.476C3.73917 134.873 3.51167 135.29 3.11425 135.407C2.71684 135.524 2.30001 135.296 2.18324 134.899L0.280426 128.422ZM128.488 10.9736C120.576 3.59105 109.369 0.750113 98.6159 2.05726C87.8631 3.36441 77.6578 8.80834 71.7355 17.873L70.4798 17.0525C76.686 7.55343 87.3247 1.91881 98.4349 0.568224C109.545 -0.782361 121.219 2.13979 129.512 9.87682L128.488 10.9736ZM71.7356 17.8728C62.5362 31.9601 63.7082 50.5405 67.883 67.1395L66.4283 67.5054C62.2284 50.8066 60.9226 31.6876 70.4797 17.0527L71.7356 17.8728ZM67.8831 67.1398C69.7878 74.7244 72.2258 82.1325 74.3931 89.6957L72.9511 90.1089C70.8072 82.6272 68.3392 75.1146 66.4282 67.5051L67.8831 67.1398ZM74.3931 89.6958C74.8145 91.1669 75.3848 92.8118 75.9786 94.5832C76.5689 96.344 77.1774 98.2156 77.6571 100.098C78.6089 103.833 79.0948 107.756 77.8016 111.041L76.4059 110.492C77.5161 107.671 77.141 104.147 76.2035 100.468C75.7386 98.6436 75.1454 96.8168 74.5564 95.06C73.971 93.3138 73.3845 91.6218 72.9511 90.1088L74.3931 89.6958ZM77.8015 111.041C76.0962 115.368 72.9712 117.46 69.1632 117.997C65.4226 118.525 61.0613 117.552 56.757 115.907C48.1338 112.612 39.3785 106.475 35.4837 103.263L36.4381 102.106C40.2615 105.259 48.8752 111.289 57.2925 114.506C61.5086 116.117 65.5855 116.987 68.9537 116.512C72.2545 116.046 74.9088 114.29 76.406 110.491L77.8015 111.041ZM35.4838 103.263C30.7273 99.3411 25.6515 93.8359 23.8788 87.57L25.3221 87.1616C26.9687 92.9814 31.7544 98.2439 36.438 102.106L35.4838 103.263ZM23.8791 87.5709C23.2193 85.25 22.8918 82.2329 23.5372 79.6768C23.8622 78.39 24.4434 77.1833 25.3905 76.2538C26.3467 75.3153 27.6311 74.7039 29.2735 74.546L29.4171 76.0391C28.0863 76.1671 27.1315 76.6468 26.4411 77.3243C25.7417 78.0108 25.2691 78.9451 24.9916 80.044C24.4322 82.2594 24.7056 84.993 25.3219 87.1607L23.8791 87.5709ZM29.2727 74.5461C31.1283 74.3654 32.9076 74.9179 34.4914 75.7584C36.0758 76.5993 37.5105 77.7528 38.6981 78.8433L37.6836 79.9481C36.5421 78.9 35.2142 77.8402 33.7882 77.0834C32.3615 76.3262 30.8825 75.8964 29.418 76.039L29.2727 74.5461ZM38.6982 78.8434C46.0903 85.6337 52.8413 95.459 56.181 104.998L54.7652 105.493C51.5141 96.2075 44.9101 86.5863 37.6835 79.948L38.6982 78.8434ZM56.1812 104.998C59.7542 115.229 57.8035 124.592 52.2582 131.03C46.7189 137.461 37.6704 140.884 27.2212 139.41L27.4307 137.925C37.4353 139.336 45.9539 136.051 51.1216 130.051C56.2833 124.059 58.1792 115.269 54.765 105.493L56.1812 104.998ZM27.2209 139.41C17.6626 138.058 8.96182 133.411 0.640686 128.869L1.35932 127.553C9.71336 132.112 18.1834 136.617 27.431 137.925L27.2209 139.41Z" fill="url(#paint0_linear_2326_820)"/>
<defs>
<linearGradient id="paint0_linear_2326_820" x1="76.9675" y1="28.9761" x2="111.773" y2="-3.2256" gradientUnits="userSpaceOnUse">
<stop stop-color="white"/>
<stop offset="1" stop-color="white" stop-opacity="0"/>
</linearGradient>
</defs>
</svg>
