<svg width="130" height="140" viewBox="0 0 130 140" fill="none" xmlns="http://www.w3.org/2000/svg">
<path d="M58.8924 17.4627L59.5203 17.0527L59.5202 17.0525L58.8924 17.4627ZM62.8444 67.3224L62.117 67.1395L62.1169 67.1398L62.8444 67.3224ZM56.3279 89.9023L55.6069 89.6957L55.6069 89.6958L56.3279 89.9023ZM52.8962 110.766L52.1984 111.041L52.1985 111.041L52.8962 110.766ZM94.0391 102.684L93.562 102.106L93.5619 102.106L94.0391 102.684ZM105.4 87.3658L104.678 87.1607L104.678 87.1616L105.4 87.3658ZM100.655 75.2925L100.582 76.039L100.583 76.0391L100.655 75.2925ZM91.8091 79.3957L91.3019 78.8433L91.3018 78.8434L91.8091 79.3957ZM74.5269 105.246L73.819 104.998L73.8188 104.998L74.5269 105.246ZM102.674 138.668L102.779 139.41L102.779 139.41L102.674 138.668ZM129.72 128.422C129.836 128.025 129.609 127.608 129.211 127.491L122.735 125.589C122.338 125.472 121.921 125.699 121.804 126.097C121.687 126.494 121.915 126.911 122.312 127.028L128.069 128.719L126.378 134.476C126.261 134.873 126.488 135.29 126.886 135.407C127.283 135.524 127.7 135.296 127.817 134.899L129.72 128.422ZM1.51166 10.9736C9.42388 3.59105 20.6313 0.750113 31.3841 2.05726C42.1369 3.36441 52.3422 8.80834 58.2645 17.873L59.5202 17.0525C53.314 7.55343 42.6753 1.91881 31.5651 0.568224C20.455 -0.782361 8.78053 2.13979 0.488344 9.87682L1.51166 10.9736ZM58.2644 17.8728C67.4638 31.9601 66.2918 50.5405 62.117 67.1395L63.5717 67.5054C67.7716 50.8066 69.0774 31.6876 59.5203 17.0527L58.2644 17.8728ZM62.1169 67.1398C60.2122 74.7244 57.7742 82.1325 55.6069 89.6957L57.0489 90.1089C59.1928 82.6272 61.6608 75.1146 63.5718 67.5051L62.1169 67.1398ZM55.6069 89.6958C55.1855 91.1669 54.6152 92.8118 54.0214 94.5832C53.4311 96.344 52.8226 98.2156 52.3429 100.098C51.3911 103.833 50.9052 107.756 52.1984 111.041L53.5941 110.492C52.4839 107.671 52.859 104.147 53.7965 100.468C54.2614 98.6436 54.8546 96.8168 55.4436 95.06C56.029 93.3138 56.6155 91.6218 57.0489 90.1088L55.6069 89.6958ZM52.1985 111.041C53.9038 115.368 57.0288 117.46 60.8368 117.997C64.5774 118.525 68.9387 117.552 73.243 115.907C81.8662 112.612 90.6215 106.475 94.5163 103.263L93.5619 102.106C89.7385 105.259 81.1248 111.289 72.7075 114.506C68.4914 116.117 64.4145 116.987 61.0463 116.512C57.7455 116.046 55.0912 114.29 53.594 110.491L52.1985 111.041ZM94.5162 103.263C99.2727 99.3411 104.348 93.8359 106.121 87.57L104.678 87.1616C103.031 92.9814 98.2456 98.2439 93.562 102.106L94.5162 103.263ZM106.121 87.5709C106.781 85.25 107.108 82.2329 106.463 79.6768C106.138 78.39 105.557 77.1833 104.61 76.2538C103.653 75.3153 102.369 74.7039 100.726 74.546L100.583 76.0391C101.914 76.1671 102.869 76.6468 103.559 77.3243C104.258 78.0108 104.731 78.9451 105.008 80.044C105.568 82.2594 105.294 84.993 104.678 87.1607L106.121 87.5709ZM100.727 74.5461C98.8717 74.3654 97.0924 74.9179 95.5086 75.7584C93.9242 76.5993 92.4895 77.7528 91.3019 78.8433L92.3164 79.9481C93.4579 78.9 94.7858 77.8402 96.2118 77.0834C97.6385 76.3262 99.1175 75.8964 100.582 76.039L100.727 74.5461ZM91.3018 78.8434C83.9097 85.6337 77.1587 95.459 73.819 104.998L75.2348 105.493C78.4859 96.2075 85.0899 86.5863 92.3165 79.948L91.3018 78.8434ZM73.8188 104.998C70.2458 115.229 72.1965 124.592 77.7418 131.03C83.2811 137.461 92.3296 140.884 102.779 139.41L102.569 137.925C92.5647 139.336 84.0461 136.051 78.8784 130.051C73.7167 124.059 71.8208 115.269 75.235 105.493L73.8188 104.998ZM102.779 139.41C112.337 138.058 121.038 133.411 129.359 128.869L128.641 127.553C120.287 132.112 111.817 136.617 102.569 137.925L102.779 139.41Z" fill="url(#paint0_linear_2324_889)"/>
<defs>
<linearGradient id="paint0_linear_2324_889" x1="53.0325" y1="28.9761" x2="18.2274" y2="-3.2256" gradientUnits="userSpaceOnUse">
<stop stop-color="white"/>
<stop offset="1" stop-color="white" stop-opacity="0"/>
</linearGradient>
</defs>
</svg>
