<svg width="97" height="99" viewBox="0 0 97 99" fill="none" xmlns="http://www.w3.org/2000/svg">
<path d="M48.5 0L56.2324 15.6222L69.9772 4.90204L70.1656 22.3321L87.2007 18.6373L79.8078 34.423L96.7589 38.4852L83.249 49.5L96.7589 60.5148L79.8078 64.577L87.2007 80.3627L70.1656 76.6679L69.9772 94.098L56.2324 83.3778L48.5 99L40.7676 83.3778L27.0228 94.098L26.8344 76.6679L9.79934 80.3627L17.1922 64.577L0.24107 60.5148L13.751 49.5L0.24107 38.4852L17.1922 34.423L9.79934 18.6373L26.8344 22.3321L27.0228 4.90204L40.7676 15.6222L48.5 0Z" fill="#CE0C48"/>
<path d="M48.5 0L56.2324 15.6222L69.9772 4.90204L70.1656 22.3321L87.2007 18.6373L79.8078 34.423L96.7589 38.4852L83.249 49.5L96.7589 60.5148L79.8078 64.577L87.2007 80.3627L70.1656 76.6679L69.9772 94.098L56.2324 83.3778L48.5 99L40.7676 83.3778L27.0228 94.098L26.8344 76.6679L9.79934 80.3627L17.1922 64.577L0.24107 60.5148L13.751 49.5L0.24107 38.4852L17.1922 34.423L9.79934 18.6373L26.8344 22.3321L27.0228 4.90204L40.7676 15.6222L48.5 0Z" fill="url(#paint0_radial_2324_883)" fill-opacity="0.7"/>
<path d="M48.5 0L56.2324 15.6222L69.9772 4.90204L70.1656 22.3321L87.2007 18.6373L79.8078 34.423L96.7589 38.4852L83.249 49.5L96.7589 60.5148L79.8078 64.577L87.2007 80.3627L70.1656 76.6679L69.9772 94.098L56.2324 83.3778L48.5 99L40.7676 83.3778L27.0228 94.098L26.8344 76.6679L9.79934 80.3627L17.1922 64.577L0.24107 60.5148L13.751 49.5L0.24107 38.4852L17.1922 34.423L9.79934 18.6373L26.8344 22.3321L27.0228 4.90204L40.7676 15.6222L48.5 0Z" fill="url(#paint1_radial_2324_883)"/>
<path d="M41.5566 42.562C41.5566 42.23 41.5225 41.9321 41.4541 41.6685C41.3955 41.395 41.2734 41.1411 41.0879 40.9067C40.9121 40.6724 40.6436 40.438 40.2822 40.2036C39.9209 39.9595 39.4375 39.7056 38.832 39.4419C38.0703 39.1294 37.3232 38.7778 36.5908 38.3872C35.8584 37.9868 35.1992 37.5229 34.6133 36.9956C34.0371 36.4585 33.5732 35.8335 33.2217 35.1206C32.8701 34.3979 32.6943 33.5581 32.6943 32.6011C32.6943 31.6831 32.8701 30.8579 33.2217 30.1255C33.583 29.3833 34.0762 28.7534 34.7012 28.2358C35.3359 27.7085 36.083 27.3081 36.9424 27.0347C37.8018 26.7515 38.7393 26.6099 39.7549 26.6099C41.1025 26.6099 42.2891 26.8833 43.3145 27.4302C44.3496 27.9673 45.1553 28.7339 45.7314 29.73C46.3174 30.7163 46.6104 31.8833 46.6104 33.231H41.6152C41.6152 32.6938 41.5469 32.2202 41.4102 31.8101C41.2734 31.3999 41.0586 31.0776 40.7656 30.8433C40.4824 30.6089 40.1064 30.4917 39.6377 30.4917C39.2178 30.4917 38.8613 30.5894 38.5684 30.7847C38.2852 30.98 38.0703 31.2437 37.9238 31.5757C37.7773 31.8979 37.7041 32.2544 37.7041 32.645C37.7041 32.9673 37.7773 33.2603 37.9238 33.5239C38.0703 33.7778 38.2705 34.0171 38.5244 34.2417C38.7881 34.4663 39.0908 34.6812 39.4326 34.8862C39.7842 35.0913 40.1602 35.2915 40.5605 35.4868C41.5273 35.8481 42.3818 36.2534 43.124 36.7026C43.876 37.1421 44.5059 37.645 45.0137 38.2114C45.5215 38.7681 45.9023 39.4028 46.1562 40.1157C46.4199 40.8286 46.5518 41.6343 46.5518 42.5327C46.5518 43.4897 46.3955 44.3394 46.083 45.0815C45.7803 45.8237 45.3359 46.4536 44.75 46.9712C44.1641 47.479 43.4561 47.8647 42.626 48.1284C41.8057 48.3921 40.8779 48.5239 39.8428 48.5239C38.8955 48.5239 37.9629 48.3872 37.0449 48.1138C36.1367 47.8306 35.3115 47.4009 34.5693 46.8247C33.8369 46.2388 33.251 45.4917 32.8115 44.5835C32.3721 43.6655 32.1523 42.5767 32.1523 41.3169H37.1914C37.1914 41.9419 37.2402 42.4692 37.3379 42.8989C37.4355 43.3286 37.5869 43.6753 37.792 43.939C38.0068 44.1929 38.2803 44.3784 38.6123 44.4956C38.9443 44.603 39.3545 44.6567 39.8428 44.6567C40.292 44.6567 40.6387 44.564 40.8828 44.3784C41.1367 44.1831 41.3125 43.9292 41.4102 43.6167C41.5078 43.2944 41.5566 42.9429 41.5566 42.562ZM57.1865 31.3853L53.2168 48.231H47.8262L54.4033 26.9028H57.7725L57.1865 31.3853ZM60.292 48.231L56.3223 31.3853L55.6631 26.9028H59.0908L65.6826 48.231H60.292ZM60.4531 40.2769V44.2466H51.21V40.2769H60.4531ZM47.6504 71.2759V75.231H38.6855V71.2759H47.6504ZM40.4434 53.9028L40.4434 75.231H35.4336V53.9028H40.4434ZM62.416 71.2759V75.231H53.085V71.2759H62.416ZM54.8281 53.9028L54.8281 75.231H49.8184L49.8184 53.9028H54.8281ZM61.2002 62.3696L61.2002 66.1929H53.085L53.085 62.3696L61.2002 62.3696ZM62.46 53.9028V57.8726L53.085 57.8726V53.9028H62.46Z" fill="white"/>
<defs>
<radialGradient id="paint0_radial_2324_883" cx="0" cy="0" r="1" gradientUnits="userSpaceOnUse" gradientTransform="translate(25.125 20.625) rotate(51.0441) scale(83.1051 83.1051)">
<stop stop-color="white" stop-opacity="0.59"/>
<stop offset="0.697917" stop-color="white" stop-opacity="0"/>
<stop offset="1" stop-color="white" stop-opacity="0"/>
</radialGradient>
<radialGradient id="paint1_radial_2324_883" cx="0" cy="0" r="1" gradientUnits="userSpaceOnUse" gradientTransform="translate(84.4384 86.625) rotate(-93.6705) scale(84.7363 94.4422)">
<stop stop-opacity="0.23"/>
<stop offset="0.861815" stop-opacity="0"/>
</radialGradient>
</defs>
</svg>
