<svg width="77" height="77" viewBox="0 0 77 77" fill="none" xmlns="http://www.w3.org/2000/svg">
<path d="M38.5 0.000488281L44.5141 12.1511L55.2045 3.81319L55.3511 17.3699L68.6005 14.4961L62.8505 26.7739L76.0347 29.9334L65.527 38.5005L76.0347 47.0675L62.8505 50.2271L68.6005 62.5048L55.3511 59.6311L55.2045 73.1878L44.5141 64.8499L38.5 77.0005L32.4859 64.8499L21.7955 73.1878L21.6489 59.6311L8.39949 62.5048L14.1495 50.2271L0.965275 47.0675L11.473 38.5005L0.965275 29.9334L14.1495 26.7739L8.39949 14.4961L21.6489 17.3699L21.7955 3.81319L32.4859 12.1511L38.5 0.000488281Z" fill="#CE0C48"/>
<path d="M38.5 0.000488281L44.5141 12.1511L55.2045 3.81319L55.3511 17.3699L68.6005 14.4961L62.8505 26.7739L76.0347 29.9334L65.527 38.5005L76.0347 47.0675L62.8505 50.2271L68.6005 62.5048L55.3511 59.6311L55.2045 73.1878L44.5141 64.8499L38.5 77.0005L32.4859 64.8499L21.7955 73.1878L21.6489 59.6311L8.39949 62.5048L14.1495 50.2271L0.965275 47.0675L11.473 38.5005L0.965275 29.9334L14.1495 26.7739L8.39949 14.4961L21.6489 17.3699L21.7955 3.81319L32.4859 12.1511L38.5 0.000488281Z" fill="url(#paint0_radial_2334_4639)" fill-opacity="0.7"/>
<path d="M38.5 0.000488281L44.5141 12.1511L55.2045 3.81319L55.3511 17.3699L68.6005 14.4961L62.8505 26.7739L76.0347 29.9334L65.527 38.5005L76.0347 47.0675L62.8505 50.2271L68.6005 62.5048L55.3511 59.6311L55.2045 73.1878L44.5141 64.8499L38.5 77.0005L32.4859 64.8499L21.7955 73.1878L21.6489 59.6311L8.39949 62.5048L14.1495 50.2271L0.965275 47.0675L11.473 38.5005L0.965275 29.9334L14.1495 26.7739L8.39949 14.4961L21.6489 17.3699L21.7955 3.81319L32.4859 12.1511L38.5 0.000488281Z" fill="url(#paint1_radial_2334_4639)"/>
<path d="M22.5752 42.4102C22.5752 42.1999 22.5535 42.0112 22.5103 41.8442C22.4731 41.6711 22.3958 41.5103 22.2783 41.3618C22.167 41.2134 21.9969 41.0649 21.7681 40.9165C21.5392 40.7619 21.2331 40.6011 20.8496 40.4341C20.3672 40.2362 19.894 40.0135 19.4302 39.7661C18.9663 39.5125 18.5488 39.2188 18.1777 38.8848C17.8128 38.5446 17.519 38.1488 17.2964 37.6973C17.0737 37.2396 16.9624 36.7077 16.9624 36.1016C16.9624 35.5202 17.0737 34.9976 17.2964 34.5337C17.5252 34.0636 17.8376 33.6647 18.2334 33.3369C18.6354 33.0029 19.1086 32.7493 19.6528 32.5762C20.1971 32.3968 20.7909 32.3071 21.4341 32.3071C22.2876 32.3071 23.0391 32.4803 23.6885 32.8267C24.3441 33.1668 24.8543 33.6523 25.2192 34.2832C25.5903 34.9079 25.7759 35.647 25.7759 36.5005H22.6123C22.6123 36.1603 22.569 35.8604 22.4824 35.6006C22.3958 35.3408 22.2598 35.1367 22.0742 34.9883C21.8949 34.8398 21.6567 34.7656 21.3599 34.7656C21.0939 34.7656 20.8682 34.8275 20.6826 34.9512C20.5033 35.0749 20.3672 35.2419 20.2744 35.4521C20.1816 35.6562 20.1353 35.882 20.1353 36.1294C20.1353 36.3335 20.1816 36.519 20.2744 36.686C20.3672 36.8468 20.494 36.9984 20.6548 37.1406C20.8218 37.2829 21.0135 37.4189 21.23 37.5488C21.4526 37.6787 21.6908 37.8055 21.9443 37.9292C22.5566 38.158 23.0978 38.4147 23.5679 38.6992C24.0441 38.9775 24.443 39.2961 24.7646 39.6548C25.0863 40.0073 25.3275 40.4093 25.4883 40.8608C25.6553 41.3123 25.7388 41.8226 25.7388 42.3916C25.7388 42.9977 25.6398 43.5358 25.4419 44.0059C25.2502 44.4759 24.9688 44.8748 24.5977 45.2026C24.2266 45.5243 23.7782 45.7686 23.2524 45.9355C22.7329 46.1025 22.1453 46.186 21.4897 46.186C20.8898 46.186 20.2992 46.0994 19.7178 45.9263C19.1426 45.7469 18.62 45.4748 18.1499 45.1099C17.686 44.7388 17.3149 44.2656 17.0366 43.6904C16.7583 43.109 16.6191 42.4194 16.6191 41.6216H19.8105C19.8105 42.0174 19.8415 42.3514 19.9033 42.6235C19.9652 42.8957 20.061 43.1152 20.1909 43.2822C20.327 43.443 20.5002 43.5605 20.7104 43.6348C20.9207 43.7028 21.1805 43.7368 21.4897 43.7368C21.7743 43.7368 21.9938 43.6781 22.1484 43.5605C22.3092 43.4368 22.4206 43.276 22.4824 43.0781C22.5443 42.874 22.5752 42.6514 22.5752 42.4102ZM32.4741 35.3315L29.96 46.0005H26.5459L30.7114 32.4927H32.8452L32.4741 35.3315ZM34.4409 46.0005L31.9268 35.3315L31.5093 32.4927H33.6802L37.855 46.0005H34.4409ZM34.543 40.9629V43.4771H28.689V40.9629H34.543ZM46.6128 43.4956V46.0005H40.9351V43.4956H46.6128ZM42.0483 32.4927V46.0005H38.8755V32.4927H42.0483ZM55.9644 43.4956V46.0005H50.0547V43.4956H55.9644ZM51.1587 32.4927V46.0005H47.9858V32.4927H51.1587ZM55.1943 37.855V40.2764H50.0547V37.855H55.1943ZM55.9922 32.4927V35.0068H50.0547V32.4927H55.9922Z" fill="white"/>
<defs>
<radialGradient id="paint0_radial_2334_4639" cx="0" cy="0" r="1" gradientUnits="userSpaceOnUse" gradientTransform="translate(20.3194 16.0422) rotate(51.0441) scale(64.6373 64.6373)">
<stop stop-color="white" stop-opacity="0.59"/>
<stop offset="0.697917" stop-color="white" stop-opacity="0"/>
<stop offset="1" stop-color="white" stop-opacity="0"/>
</radialGradient>
<radialGradient id="paint1_radial_2334_4639" cx="0" cy="0" r="1" gradientUnits="userSpaceOnUse" gradientTransform="translate(66.4521 67.3755) rotate(-93.6705) scale(65.906 73.455)">
<stop stop-opacity="0.23"/>
<stop offset="0.861815" stop-opacity="0"/>
</radialGradient>
</defs>
</svg>
