<svg width="46" height="46" viewBox="0 0 46 46" fill="none" xmlns="http://www.w3.org/2000/svg">
<path d="M18.6553 35.9937C19.2949 36.6646 20.1348 37 20.9757 37C21.8156 37 22.6565 36.6646 23.2961 35.9937L23.8539 35.4086C23.9917 35.264 24.1758 35.1838 24.3718 35.1838H26.493C27.3694 35.1838 28.1932 34.8258 28.8134 34.1764L33.2011 29.5773C33.704 29.0487 33.9893 28.3157 33.9828 27.5646C33.9764 26.8237 33.6964 26.1381 33.1968 25.6332C32.7995 25.2323 32.3074 24.9906 31.796 24.907C31.9919 24.506 32.0953 24.0554 32.091 23.598C32.0845 22.8571 31.8056 22.1715 31.305 21.6666C30.7418 21.0985 29.9881 20.85 29.2581 20.9178C29.2656 20.8342 29.2688 20.7506 29.2688 20.6659C29.2688 19.934 28.9975 19.2462 28.5043 18.7289C28.1404 18.3472 27.6946 18.1021 27.2252 17.9937L30.3639 14.7036C30.8678 14.175 31.1521 13.442 31.1456 12.6909C31.1391 11.95 30.8603 11.2644 30.3596 10.7595C29.342 9.73287 27.7011 9.74868 26.7019 10.7968L25.5842 11.9669C25.3484 12.2154 25.3473 12.6175 25.5842 12.866C25.8211 13.1144 26.2044 13.1144 26.4413 12.866L27.5579 11.6947C28.0941 11.1334 28.9738 11.1244 29.5197 11.6744C29.7835 11.9409 29.931 12.3058 29.9343 12.7022C29.9386 13.1133 29.7824 13.5154 29.5079 13.8034L23.3909 20.2153C23.1551 20.4638 23.154 20.8658 23.3909 21.1143C23.5093 21.2386 23.6644 21.3007 23.8194 21.3007C23.9745 21.3007 24.1295 21.2386 24.2479 21.1143L25.6671 19.6268C26.213 19.0542 27.1024 19.0542 27.6483 19.6268C27.9132 19.9035 28.0586 20.2729 28.0586 20.6648C28.0586 21.0567 27.9132 21.4249 27.6483 21.7028L27.1756 22.1986C26.9387 22.4471 26.9387 22.8491 27.1756 23.0976C27.2941 23.2219 27.4491 23.284 27.6042 23.284C27.7592 23.284 27.9143 23.2219 28.0327 23.0976L28.5054 22.6018C29.0416 22.0393 29.9213 22.0314 30.4672 22.5815C30.7311 22.848 30.8786 23.2128 30.8818 23.6093C30.8861 24.0215 30.73 24.4225 30.4554 24.7105L29.0675 26.1641C28.8306 26.4114 28.8306 26.8146 29.0675 27.062C29.1859 27.1862 29.341 27.2483 29.496 27.2483C29.6511 27.2483 29.8061 27.1862 29.9246 27.0631L30.3973 26.5673C30.9335 26.0048 31.8132 25.9958 32.3591 26.547C32.6229 26.8124 32.7704 27.1783 32.7736 27.5748C32.778 27.987 32.6218 28.388 32.3472 28.676L27.9595 33.2751C27.5686 33.6851 27.0486 33.9098 26.4962 33.9098H24.375C23.856 33.9098 23.3682 34.1222 23.0011 34.5062L22.4433 35.0912C21.6358 35.9372 20.3232 35.9372 19.5156 35.0912L13.8401 29.1413C13.4492 28.7313 13.2339 28.1869 13.2339 27.6075C13.2339 27.0281 13.4492 26.4837 13.8401 26.0737L13.8918 26.0195C14.512 25.3701 14.8533 24.506 14.8533 23.5867V17.6864C14.8533 16.8924 15.4692 16.234 16.2273 16.2193C16.5923 16.2114 16.9444 16.3605 17.2146 16.6394C17.4946 16.9275 17.655 17.3273 17.655 17.735V20.2785L16.7721 21.2047C16.5352 21.4531 16.5352 21.8552 16.7721 22.1037C16.8905 22.228 17.0456 22.2901 17.2006 22.2901C17.3557 22.2901 17.5107 22.228 17.6292 22.1037L24.445 14.9588C24.6819 14.7103 24.6819 14.3083 24.445 14.0609C24.2081 13.8124 23.8248 13.8124 23.5879 14.0609L18.8664 19.0102V17.7361C18.8664 16.9896 18.5735 16.26 18.062 15.7336C17.5581 15.2141 16.8991 14.9351 16.2036 14.9498C14.7909 14.978 13.6409 16.2069 13.6409 17.6887V23.5889C13.6409 24.1683 13.4256 24.7127 13.0347 25.1227L12.983 25.1769C12.3639 25.8264 12.0215 26.6904 12.0215 27.6098C12.0215 28.5291 12.3628 29.3932 12.983 30.0426L18.6586 35.9925L18.6553 35.9937Z" fill="white"/>
<path d="M5.60621 23.9165H8.28193C8.61572 23.9165 8.88814 23.6319 8.88814 23.2806C8.88814 22.9293 8.6168 22.6458 8.28193 22.6458H5.60621C5.27134 22.6458 5 22.9305 5 23.2806C5 23.6307 5.27134 23.9165 5.60621 23.9165Z" fill="white"/>
<path d="M10.1307 31.1461L7.81354 32.5488C7.5239 32.7239 7.42376 33.1124 7.59173 33.4163C7.70371 33.6196 7.90722 33.7336 8.11719 33.7336C8.21948 33.7336 8.32392 33.7065 8.41868 33.6489L10.7358 32.2462C11.0255 32.0711 11.1245 31.6826 10.9576 31.3787C10.7908 31.0749 10.4204 30.971 10.1307 31.1461Z" fill="white"/>
<path d="M35.2642 32.2462L37.5813 33.6489C37.6772 33.7065 37.7805 33.7336 37.8839 33.7336C38.0928 33.7336 38.2974 33.6196 38.4093 33.4163C38.5762 33.1124 38.4772 32.7239 38.1875 32.5488L35.8704 31.1461C35.5796 30.971 35.2103 31.0749 35.0434 31.3787C34.8765 31.6826 34.9756 32.0711 35.2652 32.2462H35.2642Z" fill="white"/>
<path d="M37.1129 23.2806C37.1129 23.6319 37.3843 23.9165 37.7181 23.9165H40.3949C40.7287 23.9165 41 23.6319 41 23.2806C41 22.9293 40.7287 22.6458 40.3949 22.6458H37.7181C37.3843 22.6458 37.1129 22.9305 37.1129 23.2806Z" fill="white"/>
<path d="M35.5678 15.4998C35.6701 15.4998 35.7745 15.4727 35.8704 15.4151L38.1875 14.0123C38.4772 13.8373 38.5762 13.4488 38.4093 13.1449C38.2424 12.8411 37.872 12.7372 37.5824 12.9123L35.2652 14.315C34.9756 14.4901 34.8765 14.8786 35.0434 15.1825C35.1554 15.3858 35.3589 15.4998 35.5689 15.4998H35.5678Z" fill="white"/>
<path d="M7.81354 14.0123L10.1307 15.4151C10.2255 15.4727 10.3299 15.4998 10.4322 15.4998C10.6422 15.4998 10.8457 15.3858 10.9576 15.1825C11.1245 14.8786 11.0255 14.4901 10.7358 14.315L8.41868 12.9123C8.12903 12.7372 7.75863 12.8411 7.59173 13.1449C7.42376 13.4488 7.5239 13.8373 7.81354 14.0123Z" fill="white"/>
<rect x="1" y="1" width="44" height="44" rx="22" stroke="white" stroke-width="1.5"/>
</svg>
