<svg width="46" height="46" viewBox="0 0 46 46" fill="none" xmlns="http://www.w3.org/2000/svg">
<path d="M36.9935 33.8973C36.6883 33.7399 36.3097 33.8513 36.1471 34.1468C35.2491 35.7759 33.5079 36.7883 31.6026 36.7883C28.7991 36.7883 26.4509 34.4923 26.4559 31.8C26.4593 29.1287 28.8033 26.823 31.6026 26.823C33.5113 26.823 35.2541 27.8378 36.1505 29.4726C36.3131 29.768 36.6908 29.8802 36.996 29.7236C37.3012 29.5662 37.4171 29.2005 37.2553 28.905C36.1413 26.8747 33.9749 25.6129 31.6026 25.6129C30.752 25.6129 29.9398 25.7743 29.1968 26.0674C29.2235 25.7283 29.2327 25.3893 29.2294 25.051V11.1212C29.2294 9.83595 28.1495 8.7905 26.822 8.7905C25.572 8.7905 24.543 9.71647 24.4255 10.8967L23.5716 8.69201C23.0713 7.39792 21.5536 6.69638 20.2044 7.12667C18.7668 7.5836 17.9897 9.14652 18.5175 10.5197L21.2142 17.812C20.7539 17.749 20.3395 17.7313 19.8951 17.7313C17.702 17.6699 15.7499 18.516 14.4716 19.1578C14.4582 19.165 14.4449 19.1715 14.4316 19.1796C13.6169 19.6656 13.1708 20.4099 13.1399 21.3342C13.1399 21.3407 13.1399 21.3471 13.1399 21.3536C13.1399 21.5909 13.1724 21.821 13.235 22.0398H12.6254C12.2802 22.0398 12 22.3111 12 22.6453V27.5278C12 28.4731 12.3994 29.3886 13.0974 30.0473L16.4579 34.0967C16.9282 34.6764 17.1633 35.4312 17.0716 36.073L16.9056 37.317C16.8614 37.6488 17.1033 37.9524 17.446 37.9952C17.4735 37.9984 17.5002 38 17.5269 38C17.8362 38 18.1056 37.7772 18.1464 37.472L18.3115 36.2336C18.45 35.2681 18.1239 34.188 17.4393 33.3451C17.4385 33.3435 17.4368 33.3419 17.4351 33.3403L14.048 29.2586C14.0305 29.2376 14.0121 29.2175 13.9913 29.1989C13.521 28.7654 13.2508 28.1567 13.2508 27.527V23.2499H13.2641C13.6902 23.2499 14.1105 23.3549 14.4799 23.5527C15.2813 23.9822 15.7783 24.7983 15.7783 25.6847V26.6898C15.7783 26.8545 15.8475 27.0119 15.9692 27.1258L17.4268 28.4885C18.1264 29.1424 19.0587 29.4734 20.2003 29.4734C20.2094 29.4734 20.2178 29.4734 20.2269 29.4734C22.3917 29.3838 23.9802 27.8063 24.0902 25.6363C24.0902 25.6266 24.0911 25.6161 24.0911 25.6064C24.0911 23.4421 22.3274 21.7459 20.0727 21.7346C18.6834 21.6491 17.4126 21.9098 16.3962 22.4879C15.9801 22.7155 15.5022 22.7179 15.0845 22.4943C14.6525 22.2626 14.3924 21.8404 14.3899 21.3633C14.409 20.8555 14.625 20.4922 15.0678 20.2218C16.9207 19.2942 18.4008 18.8986 19.8659 18.9414C19.8717 18.9414 19.8784 18.9414 19.8842 18.9414C20.5763 18.9414 21.1467 18.985 22.0122 19.2078C22.0139 19.2078 22.0156 19.2086 22.0181 19.2094C22.0273 19.2119 22.9195 19.4435 23.5224 19.823C23.6274 19.8892 23.7459 19.9207 23.8626 19.9207C24.0669 19.9207 24.2679 19.8238 24.3879 19.6454C24.5764 19.3652 24.4938 18.9898 24.2045 18.8074C23.6842 18.4796 23.0404 18.2504 22.6602 18.1317L19.6924 10.1064C19.4398 9.41777 19.8742 8.50472 20.5947 8.27625C21.2751 8.05909 22.1473 8.46193 22.4008 9.11665L26.7353 20.3074C27.3515 21.8985 27.9494 23.5188 27.9794 25.2367C27.9794 25.7542 27.9377 26.2741 27.8543 26.7859C26.636 27.6392 25.783 28.8631 25.4119 30.2411C25.1884 31.071 25.1459 31.9461 25.2868 32.793V37.3937C25.2868 37.7279 25.567 37.9992 25.9122 37.9992C26.2575 37.9992 26.5376 37.7279 26.5376 37.3937V35.5846C27.7084 37.0522 29.5437 37.9992 31.6034 37.9992C33.9716 37.9992 36.1355 36.7414 37.2512 34.7167C37.4138 34.4213 37.2987 34.0548 36.9935 33.8973ZM17.019 23.5389C17.019 23.5389 17.0249 23.5357 17.0274 23.5341C17.8312 23.0756 18.8636 22.8713 20.011 22.9448C20.0251 22.9448 20.0385 22.9456 20.0527 22.9456C21.6112 22.9456 22.8328 24.1065 22.8411 25.5911C22.7569 27.1233 21.6929 28.1938 20.1877 28.2624C19.3881 28.26 18.7518 28.0428 18.2965 27.6166L17.0299 26.4331V25.6847C17.0299 24.9953 16.8281 24.3333 16.4662 23.7666C16.6563 23.7125 16.8414 23.6358 17.019 23.5381V23.5389ZM25.6654 14.0976V11.1212C25.6654 10.5036 26.1841 10.0014 26.822 10.0014C27.4599 10.0014 27.9786 10.5036 27.9786 11.1212V20.0522C27.9419 19.9643 27.916 19.9037 27.9027 19.8746L25.6654 14.0976Z" fill="white"/>
<path d="M33.7039 29.7196L30.5652 32.7582L29.4979 31.7249C29.2536 31.4884 28.8575 31.4884 28.6131 31.7249C28.3688 31.9614 28.3688 32.3449 28.6131 32.5814L30.1224 34.0426C30.2442 34.1605 30.4043 34.2202 30.5644 34.2202C30.7245 34.2202 30.8846 34.1613 31.0063 34.0426L34.587 30.5761C34.8313 30.3396 34.8313 29.9561 34.587 29.7196C34.3426 29.483 33.9466 29.483 33.7022 29.7196H33.7039Z" fill="white"/>
<path d="M37.9883 31.6878C37.8774 31.1574 37.1244 31.029 36.8384 31.4948C36.5482 31.9671 37.0319 32.5532 37.5705 32.3804C37.8666 32.286 38.0492 31.984 37.9883 31.6878Z" fill="white"/>
<rect x="1" y="1" width="44" height="44" rx="22" stroke="white" stroke-width="1.5"/>
</svg>
