<svg width="46" height="46" viewBox="0 0 46 46" fill="none" xmlns="http://www.w3.org/2000/svg">
<path d="M31.1903 24.8026C32.3752 23.8763 33.0554 22.5009 33.0554 21.0295C33.0554 19.5582 32.3145 18.201 31.1227 17.4492C31.0252 17.388 30.9251 17.3326 30.8242 17.2813L31.4179 15.5164C31.589 15.0094 31.3007 14.4627 30.7763 14.2981L29.913 14.0269C29.6136 13.9326 29.3005 13.9847 29.0558 14.1402C28.895 14.0335 28.7008 13.9706 28.4911 13.9706H27.5834C27.5749 13.9706 27.5672 13.9714 27.5586 13.9723L27.6639 13.6919C27.8521 13.1915 27.5843 12.6357 27.0667 12.453L26.2137 12.1527C25.7132 11.9766 25.1606 12.2131 24.9535 12.6821V12.405C24.9535 11.8715 24.5052 11.4382 23.9543 11.4382H23.0466C22.4956 11.4382 22.0473 11.8715 22.0473 12.405V12.6821C21.8403 12.2139 21.2876 11.9766 20.7871 12.1527L19.9342 12.453C19.4157 12.6349 19.1479 13.1907 19.337 13.6919L19.4422 13.9723C19.4337 13.9723 19.426 13.9706 19.4174 13.9706H18.5097C18.3001 13.9706 18.1059 14.0335 17.9451 14.1402C17.7004 13.9847 17.3873 13.9334 17.087 14.0269L16.2246 14.2981C15.7002 14.4635 15.4118 15.0102 15.5829 15.5164L16.1767 17.2813C16.0757 17.3326 15.9756 17.388 15.8781 17.45C14.6864 18.201 13.9455 19.5731 13.9455 21.0304C13.9455 22.4876 14.6248 23.8771 15.8105 24.8034C16.8072 25.5817 17.4454 26.6949 17.6071 27.9371C17.7663 29.1537 17.8467 30.3943 17.8809 31.0253C17.8954 31.2941 18.0144 31.5447 18.218 31.7317C18.4199 31.9169 18.6851 32.0186 18.964 32.0186C19.5415 32.0186 20.0171 31.582 20.0471 31.0253C20.077 30.4836 20.1258 29.7533 20.2028 28.9751C20.2182 29.0346 20.2327 29.0942 20.2481 29.1537C21.1807 32.7853 22.2449 34.5511 23.5017 34.5511C23.796 34.5511 24.0758 34.4568 24.3453 34.2682C24.459 34.7554 24.9091 35.1201 25.4463 35.1201H31.9278C32.5506 35.1201 33.0571 34.6305 33.0571 34.0284V29.6417C33.0571 29.0396 32.5506 28.55 31.9278 28.55H29.3219C29.3458 28.3349 29.3698 28.1315 29.3954 27.9363C29.5571 26.6949 30.1945 25.5817 31.1912 24.8034L31.1903 24.8026ZM29.6153 14.9118L30.4777 15.1831C30.4982 15.1897 30.5085 15.2095 30.5025 15.2286L29.9182 16.9654C29.777 16.9373 29.6341 16.9174 29.4904 16.9067V15.1665L29.5683 14.935C29.5751 14.9159 29.5965 14.9052 29.6153 14.911V14.9118ZM28.4903 14.901C28.5108 14.901 28.5279 14.9176 28.5279 14.9374V16.972C28.3628 17.0059 28.1994 17.0514 28.0377 17.1093C27.8752 17.0497 27.7109 17.0026 27.5458 16.9679V14.9374C27.5458 14.9176 27.562 14.901 27.5834 14.901H28.4911H28.4903ZM25.8364 13.0484C25.8433 13.0294 25.8655 13.0203 25.8844 13.0269L26.7373 13.3272C26.7373 13.3272 26.7519 13.3321 26.7578 13.3462C26.7647 13.3594 26.7604 13.3702 26.7596 13.3735L25.028 17.9719C25.0032 17.9628 24.9784 17.9545 24.9527 17.9463V15.3956L25.8356 13.0493L25.8364 13.0484ZM23.0457 12.3686H23.9534C23.974 12.3686 23.9902 12.3843 23.9902 12.405V17.7321C23.8294 17.7147 23.6651 17.7048 23.4991 17.7048C23.3332 17.7048 23.1698 17.7147 23.0081 17.7321V12.4042C23.0081 12.3843 23.0243 12.3678 23.0449 12.3678L23.0457 12.3686ZM20.2413 13.3462C20.2473 13.3329 20.2584 13.3288 20.2627 13.3272L21.1148 13.0269C21.1336 13.0203 21.1559 13.0302 21.1627 13.0484L22.0456 15.3948V17.9454C22.0208 17.9537 21.9951 17.962 21.9712 17.9711L20.2396 13.3726C20.2396 13.3726 20.2345 13.3586 20.2413 13.3454V13.3462ZM18.5089 14.901H19.4166C19.4371 14.901 19.4542 14.9176 19.4542 14.9374V16.9679C19.2891 17.0034 19.1257 17.0497 18.9623 17.1093C18.8006 17.0506 18.6372 17.0059 18.4721 16.972V14.9374C18.4721 14.9176 18.4892 14.901 18.5097 14.901H18.5089ZM16.4967 15.2294C16.4898 15.2104 16.5009 15.1897 16.5215 15.1839L17.383 14.9126C17.4027 14.9068 17.424 14.9176 17.43 14.9366L17.5079 15.1682V16.9083C17.3642 16.9191 17.2221 16.9381 17.0801 16.967L16.4958 15.2302L16.4967 15.2294ZM19.3644 27.8197C19.2112 28.9875 19.1274 30.1801 19.0846 30.9749C19.0812 31.0378 19.0273 31.0865 18.9623 31.0865C18.9212 31.0865 18.8938 31.0692 18.8784 31.0551C18.8648 31.0427 18.8417 31.0162 18.8399 30.9749C18.8049 30.3314 18.7227 29.066 18.5602 27.8188C18.3668 26.3376 17.6054 25.0093 16.4145 24.0781C15.4563 23.3296 14.9071 22.218 14.9071 21.0287C14.9071 19.8394 15.4803 18.8097 16.4025 18.2283C17.1357 17.766 17.9759 17.6982 18.7681 18.0364C18.8921 18.0894 19.0333 18.0894 19.1565 18.0364C19.7459 17.785 20.3576 17.7577 20.9394 17.9521L21.1062 18.3954C19.9162 19.1513 19.1283 20.4523 19.1283 21.9277C19.1283 22.9003 19.3267 24.6678 19.6784 26.5634C19.5252 26.9678 19.4191 27.3896 19.3635 27.8188L19.3644 27.8197ZM23.4991 33.6198C23.3854 33.6198 22.967 33.5297 22.3767 32.3685C22.191 32.0029 22.0054 31.5621 21.824 31.0576C22.0841 31.0518 22.2929 30.8459 22.2929 30.5928C22.2929 30.3397 22.0773 30.1272 21.812 30.1272H21.5169C21.4014 29.7509 21.2893 29.3506 21.1807 28.9279C21.0386 28.3763 20.9095 27.8097 20.7923 27.2465H21.5195C21.7855 27.2465 22.0003 27.0381 22.0003 26.7817C22.0003 26.5253 21.7847 26.3161 21.5195 26.3161H20.61C20.2781 24.5123 20.0916 22.8458 20.0916 21.9285C20.0916 20.1123 21.6204 18.6336 23.4991 18.6336C25.3779 18.6336 26.9067 20.1115 26.9067 21.9285C26.9067 22.6787 26.7818 23.9317 26.5542 25.3517H25.673C25.407 25.3517 25.1922 25.5602 25.1922 25.8165C25.1922 26.0729 25.4078 26.2813 25.673 26.2813H26.3942C26.2574 27.0274 26.0957 27.7973 25.9126 28.5483H25.4429C24.8201 28.5483 24.3136 29.0379 24.3136 29.64V32.9044C24.0159 33.3593 23.7224 33.6173 23.4983 33.6173L23.4991 33.6198ZM32.0921 29.6417V34.0276C32.0921 34.1169 32.0168 34.1888 31.9252 34.1888H25.4438C25.3514 34.1888 25.2769 34.1161 25.2769 34.0276V29.6417C25.2769 29.5524 25.3522 29.4804 25.4438 29.4804H31.9252C32.0168 29.4804 32.0921 29.5532 32.0921 29.6417ZM27.7203 28.55C27.6929 28.2911 27.6639 28.0496 27.6339 27.8197C27.5783 27.3913 27.4722 26.9695 27.3191 26.5642C27.6707 24.6678 27.8692 22.8995 27.8692 21.9285C27.8692 20.4523 27.0812 19.1513 25.8912 18.3954L26.058 17.9521C26.6398 17.7569 27.2523 17.785 27.8409 18.0356C27.965 18.0885 28.1053 18.0885 28.2294 18.0356C29.0216 17.6973 29.8617 17.766 30.5949 18.2275C31.518 18.8089 32.0904 19.8824 32.0904 21.0279C32.0904 22.1734 31.5411 23.3288 30.5821 24.0772C29.3912 25.0077 28.6289 26.3368 28.4364 27.818C28.4065 28.0488 28.3774 28.2903 28.35 28.5483H27.7186L27.7203 28.55Z" fill="white"/>
<path d="M29.1935 20.4754H29.842C30.1072 20.4754 30.3228 20.267 30.3228 20.0106C30.3228 19.7542 30.1072 19.5458 29.842 19.5458H29.1935C28.9275 19.5458 28.7127 19.7542 28.7127 20.0106C28.7127 20.267 28.9283 20.4754 29.1935 20.4754Z" fill="white"/>
<path d="M17.8082 20.5325C17.8082 20.2753 17.5926 20.0677 17.3274 20.0677H16.6789C16.4128 20.0677 16.1981 20.2761 16.1981 20.5325C16.1981 20.7889 16.4137 20.9973 16.6789 20.9973H17.3274C17.5934 20.9973 17.8082 20.7889 17.8082 20.5325Z" fill="white"/>
<path d="M23.8242 23.6894H25.1204C25.3864 23.6894 25.6012 23.4809 25.6012 23.2245C25.6012 22.9682 25.3856 22.7597 25.1204 22.7597H23.8242C23.5582 22.7597 23.3434 22.9682 23.3434 23.2245C23.3434 23.4809 23.559 23.6894 23.8242 23.6894Z" fill="white"/>
<path d="M22.493 20.836H21.8454C21.5793 20.836 21.3646 21.0444 21.3646 21.3008C21.3646 21.5572 21.5802 21.7656 21.8454 21.7656H22.493C22.7591 21.7656 22.9739 21.5572 22.9739 21.3008C22.9739 21.0444 22.7583 20.836 22.493 20.836Z" fill="white"/>
<path d="M24.6293 27.6601C24.6293 27.4028 24.4137 27.1952 24.1485 27.1952H23.5C23.2339 27.1952 23.0192 27.4028 23.0192 27.6601C23.0192 27.9173 23.2348 28.1249 23.5 28.1249H24.1485C24.4146 28.1249 24.6293 27.9164 24.6293 27.6601Z" fill="white"/>
<path d="M34.5192 25.3567C34.7853 25.3567 35 25.1483 35 24.8919V11.9716C35 10.3332 33.6209 9 31.9261 9H15.0739C13.3791 9 12 10.3324 12 11.9716V34.0284C12 35.6668 13.3791 37 15.0739 37H31.9261C33.6217 37 35 35.6668 35 34.0284V27.0629C35 26.8057 34.7844 26.5981 34.5192 26.5981C34.254 26.5981 34.0384 26.8065 34.0384 27.0629V34.0284C34.0384 35.154 33.0913 36.0696 31.9269 36.0696H15.0739C13.9095 36.0696 12.9625 35.154 12.9625 34.0284V11.9716C12.9625 10.846 13.9095 9.93044 15.0739 9.93044H31.9261C33.0905 9.93044 34.0375 10.846 34.0375 11.9716V24.8919C34.0375 25.1483 34.2531 25.3567 34.5183 25.3567H34.5192Z" fill="white"/>
<path d="M26.7407 31.3603H30.63C30.896 31.3603 31.1108 31.1519 31.1108 30.8955C31.1108 30.6391 30.8952 30.4307 30.63 30.4307H26.7407C26.4747 30.4307 26.2599 30.6391 26.2599 30.8955C26.2599 31.1519 26.4747 31.3603 26.7407 31.3603Z" fill="white"/>
<path d="M26.7407 33.2394H29.3338C29.5991 33.2394 29.8146 33.031 29.8146 32.7746C29.8146 32.5182 29.5991 32.3089 29.3338 32.3089H26.7407C26.4747 32.3089 26.2599 32.5174 26.2599 32.7746C26.2599 33.0318 26.4747 33.2394 26.7407 33.2394Z" fill="white"/>
<path d="M18.2881 22.9996C18.2881 23.256 18.0725 23.4644 17.8073 23.4644C17.5421 23.4644 17.3265 23.256 17.3265 22.9996C17.3265 22.7432 17.5421 22.5348 17.8073 22.5348C18.0725 22.5348 18.2881 22.7432 18.2881 22.9996Z" fill="white"/>
<path d="M30.8977 22.3859C30.8977 22.6431 30.6822 22.8507 30.4169 22.8507C30.1517 22.8507 29.9361 22.6423 29.9361 22.3859C29.9361 22.1295 30.1517 21.9203 30.4169 21.9203C30.6822 21.9203 30.8977 22.1287 30.8977 22.3859Z" fill="white"/>
<rect x="1" y="1" width="44" height="44" rx="22" stroke="white" stroke-width="1.5"/>
</svg>
