<svg width="18" height="16" viewBox="0 0 18 16" fill="none" xmlns="http://www.w3.org/2000/svg">
<path d="M8.33093 1.16434C8.60447 0.606362 9.39983 0.606361 9.67337 1.16434L11.2944 4.47116C11.5054 4.9014 11.9155 5.19939 12.3899 5.26703L16.0358 5.7869C16.651 5.87462 16.8968 6.63106 16.4506 7.06364L13.8066 9.62724C13.4626 9.96078 13.3059 10.4429 13.3882 10.915L14.0204 14.5431C14.1271 15.1553 13.4836 15.6228 12.9343 15.3322L9.67915 13.6097C9.25563 13.3856 8.74866 13.3856 8.32514 13.6097L5.06996 15.3322C4.5207 15.6228 3.87723 15.1553 3.98391 14.5431L4.61613 10.915C4.69838 10.4429 4.54172 9.96078 4.19772 9.62724L1.55369 7.06363C1.10754 6.63106 1.35332 5.87462 1.96852 5.7869L5.61443 5.26703C6.08879 5.19939 6.49894 4.9014 6.70985 4.47116L8.33093 1.16434Z" fill="#FFE600" stroke="url(#paint0_linear_2122_2427)" stroke-width="0.7" stroke-linejoin="round"/>
<defs>
<linearGradient id="paint0_linear_2122_2427" x1="9.00215" y1="-1" x2="9.00215" y2="18.5561" gradientUnits="userSpaceOnUse">
<stop stop-color="white"/>
<stop offset="1" stop-color="white" stop-opacity="0"/>
</linearGradient>
</defs>
</svg>
