<svg width="18" height="16" viewBox="0 0 18 16" fill="none" xmlns="http://www.w3.org/2000/svg">
<path d="M8.33093 1.30497C8.60447 0.746987 9.39983 0.746986 9.67337 1.30497L11.2944 4.61179C11.5054 5.04202 11.9155 5.34001 12.3899 5.40765L16.0358 5.92753C16.651 6.01525 16.8968 6.77169 16.4506 7.20426L13.8066 9.76786C13.4626 10.1014 13.3059 10.5836 13.3882 11.0556L14.0204 14.6837C14.1271 15.2959 13.4836 15.7634 12.9343 15.4728L9.67915 13.7504C9.25563 13.5263 8.74866 13.5263 8.32514 13.7504L5.06996 15.4728C4.5207 15.7634 3.87723 15.2959 3.98391 14.6837L4.61613 11.0556C4.69838 10.5836 4.54172 10.1014 4.19772 9.76786L1.55369 7.20426C1.10754 6.77169 1.35332 6.01525 1.96852 5.92753L5.61443 5.40765C6.08879 5.34001 6.49894 5.04202 6.70985 4.61178L8.33093 1.30497Z" fill="#FFAD49" stroke="url(#paint0_linear_2346_1686)" stroke-width="0.7" stroke-linejoin="round"/>
<defs>
<linearGradient id="paint0_linear_2346_1686" x1="9.00215" y1="-0.859375" x2="9.00215" y2="18.6967" gradientUnits="userSpaceOnUse">
<stop stop-color="#FFAD49"/>
<stop offset="1" stop-color="#FFAD49" stop-opacity="0"/>
</linearGradient>
</defs>
</svg>
