<svg width="451" height="262" viewBox="0 0 451 262" fill="none" xmlns="http://www.w3.org/2000/svg">
<rect x="383.562" y="1" width="66.5388" height="25" rx="8.25" stroke="#F4E1CC" stroke-width="1.5"/>
<path d="M383.562 19L384.92 23.9372C385.904 27.5183 389.16 30 392.874 30H440.788C444.502 30 447.759 27.5183 448.743 23.9372L450.101 19" stroke="#F4E1CC" stroke-width="1.5" stroke-linecap="round"/>
<circle cx="401.791" cy="13.2917" r="1.54167" stroke="#F4E1CC" stroke-width="1.5"/>
<circle cx="409.374" cy="13.2917" r="1.54167" stroke="#F4E1CC" stroke-width="1.5"/>
<circle cx="416.957" cy="13.2917" r="1.54167" stroke="#F4E1CC" stroke-width="1.5"/>
<circle cx="424.541" cy="13.2917" r="1.54167" stroke="#F4E1CC" stroke-width="1.5"/>
<circle cx="432.124" cy="13.2917" r="1.54167" stroke="#F4E1CC" stroke-width="1.5"/>
<path d="M297.291 50.4522V104H284.713V50.4522H297.291ZM313.73 72.7393V82.6692H293.871V72.7393H313.73ZM315.238 50.4522V60.4189H293.871V50.4522H315.238ZM359.445 73.2174V81.3084C359.445 85.1578 358.967 88.5413 358.01 91.4589C357.054 94.3766 355.693 96.8284 353.928 98.8144C352.163 100.776 350.066 102.259 347.639 103.264C345.236 104.245 342.564 104.736 339.622 104.736C336.655 104.736 333.958 104.245 331.531 103.264C329.103 102.259 327.007 100.776 325.242 98.8144C323.476 96.8284 322.116 94.3766 321.159 91.4589C320.203 88.5413 319.725 85.1578 319.725 81.3084V73.2174C319.725 69.368 320.203 65.9723 321.159 63.0301C322.116 60.0879 323.464 57.6361 325.205 55.6746C326.97 53.7131 329.067 52.2298 331.494 51.2245C333.921 50.2193 336.618 49.7167 339.585 49.7167C342.527 49.7167 345.212 50.2193 347.639 51.2245C350.091 52.2298 352.187 53.7131 353.928 55.6746C355.669 57.6361 357.017 60.0879 357.974 63.0301C358.954 65.9723 359.445 69.368 359.445 73.2174ZM346.683 81.3084V73.1438C346.683 70.741 346.536 68.6938 346.242 67.002C345.947 65.3103 345.506 63.9372 344.918 62.883C344.329 61.8287 343.594 61.0564 342.711 60.566C341.828 60.0756 340.786 59.8304 339.585 59.8304C338.334 59.8304 337.268 60.0756 336.385 60.566C335.503 61.0564 334.767 61.8287 334.179 62.883C333.615 63.9372 333.198 65.3103 332.928 67.002C332.658 68.6938 332.524 70.741 332.524 73.1438V81.3084C332.524 83.6867 332.658 85.7217 332.928 87.4134C333.198 89.0807 333.615 90.4537 334.179 91.5325C334.767 92.6113 335.515 93.4081 336.422 93.923C337.329 94.4134 338.396 94.6586 339.622 94.6586C340.799 94.6586 341.828 94.4134 342.711 93.923C343.618 93.4081 344.354 92.6113 344.918 91.5325C345.506 90.4537 345.947 89.0807 346.242 87.4134C346.536 85.7217 346.683 83.6867 346.683 81.3084ZM404.901 73.2174V81.3084C404.901 85.1578 404.423 88.5413 403.467 91.4589C402.511 94.3766 401.15 96.8284 399.385 98.8144C397.619 100.776 395.523 102.259 393.096 103.264C390.693 104.245 388.021 104.736 385.078 104.736C382.112 104.736 379.415 104.245 376.987 103.264C374.56 102.259 372.464 100.776 370.698 98.8144C368.933 96.8284 367.572 94.3766 366.616 91.4589C365.66 88.5413 365.182 85.1578 365.182 81.3084V73.2174C365.182 69.368 365.66 65.9723 366.616 63.0301C367.572 60.0879 368.921 57.6361 370.662 55.6746C372.427 53.7131 374.523 52.2298 376.951 51.2245C379.378 50.2193 382.075 49.7167 385.042 49.7167C387.984 49.7167 390.669 50.2193 393.096 51.2245C395.548 52.2298 397.644 53.7131 399.385 55.6746C401.126 57.6361 402.474 60.0879 403.43 63.0301C404.411 65.9723 404.901 69.368 404.901 73.2174ZM392.14 81.3084V73.1438C392.14 70.741 391.993 68.6938 391.698 67.002C391.404 65.3103 390.963 63.9372 390.374 62.883C389.786 61.8287 389.05 61.0564 388.168 60.566C387.285 60.0756 386.243 59.8304 385.042 59.8304C383.791 59.8304 382.725 60.0756 381.842 60.566C380.959 61.0564 380.224 61.8287 379.635 62.883C379.071 63.9372 378.655 65.3103 378.385 67.002C378.115 68.6938 377.98 70.741 377.98 73.1438V81.3084C377.98 83.6867 378.115 85.7217 378.385 87.4134C378.655 89.0807 379.071 90.4537 379.635 91.5325C380.224 92.6113 380.972 93.4081 381.879 93.923C382.786 94.4134 383.852 94.6586 385.078 94.6586C386.255 94.6586 387.285 94.4134 388.168 93.923C389.075 93.4081 389.81 92.6113 390.374 91.5325C390.963 90.4537 391.404 89.0807 391.698 87.4134C391.993 85.7217 392.14 83.6867 392.14 81.3084ZM426.49 104H416.67L416.744 94.0701H426.49C428.329 94.0701 429.824 93.6656 430.976 92.8565C432.153 92.0474 433.024 90.7111 433.588 88.8477C434.152 86.9598 434.434 84.4467 434.434 81.3084V73.1071C434.434 70.7533 434.274 68.7673 433.955 67.1491C433.661 65.5309 433.195 64.2315 432.558 63.2507C431.92 62.27 431.075 61.559 430.02 61.1176C428.966 60.6518 427.716 60.4189 426.269 60.4189H416.486V50.4522H426.269C429.407 50.4522 432.251 50.9671 434.801 51.9969C437.376 53.0021 439.595 54.4977 441.458 56.4837C443.321 58.4452 444.756 60.8234 445.761 63.6185C446.766 66.4136 447.269 69.6009 447.269 73.1806V81.3084C447.269 84.8635 446.766 88.0509 445.761 90.8705C444.756 93.6656 443.321 96.0438 441.458 98.0053C439.619 99.9668 437.425 101.462 434.875 102.492C432.349 103.497 429.554 104 426.49 104ZM424.026 50.4522V104H411.448V50.4522H424.026ZM236.719 225.767C236.719 224.934 236.633 224.186 236.461 223.524C236.314 222.837 236.008 222.2 235.542 221.611C235.1 221.023 234.426 220.434 233.519 219.846C232.612 219.233 231.398 218.596 229.878 217.934C227.966 217.149 226.09 216.266 224.251 215.286C222.412 214.28 220.757 213.116 219.286 211.792C217.84 210.443 216.675 208.874 215.792 207.084C214.91 205.27 214.468 203.161 214.468 200.759C214.468 198.454 214.91 196.382 215.792 194.543C216.7 192.68 217.938 191.098 219.507 189.799C221.101 188.475 222.976 187.47 225.134 186.783C227.291 186.072 229.645 185.717 232.195 185.717C235.579 185.717 238.558 186.403 241.132 187.776C243.731 189.125 245.754 191.049 247.2 193.55C248.671 196.027 249.407 198.957 249.407 202.34H236.866C236.866 200.992 236.694 199.802 236.351 198.773C236.008 197.743 235.468 196.934 234.733 196.345C234.022 195.757 233.078 195.463 231.901 195.463C230.847 195.463 229.952 195.708 229.216 196.198C228.505 196.689 227.966 197.351 227.598 198.184C227.23 198.993 227.046 199.888 227.046 200.869C227.046 201.678 227.23 202.414 227.598 203.076C227.966 203.713 228.468 204.314 229.106 204.878C229.768 205.442 230.528 205.981 231.386 206.496C232.269 207.011 233.213 207.513 234.218 208.004C236.645 208.911 238.79 209.928 240.654 211.056C242.542 212.16 244.123 213.422 245.398 214.844C246.673 216.242 247.629 217.836 248.267 219.625C248.929 221.415 249.26 223.438 249.26 225.694C249.26 228.096 248.867 230.229 248.083 232.093C247.323 233.956 246.207 235.538 244.736 236.837C243.265 238.112 241.487 239.081 239.403 239.743C237.344 240.405 235.015 240.736 232.416 240.736C230.037 240.736 227.696 240.392 225.391 239.706C223.111 238.995 221.039 237.916 219.176 236.469C217.337 234.998 215.866 233.123 214.763 230.842C213.659 228.538 213.108 225.804 213.108 222.641H225.759C225.759 224.21 225.882 225.534 226.127 226.613C226.372 227.692 226.752 228.562 227.267 229.224C227.806 229.862 228.493 230.328 229.326 230.622C230.16 230.891 231.19 231.026 232.416 231.026C233.544 231.026 234.414 230.793 235.027 230.328C235.664 229.837 236.106 229.2 236.351 228.415C236.596 227.606 236.719 226.723 236.719 225.767ZM287.361 230.07V240H263.934V230.07H287.361ZM268.31 186.452V240H255.733V186.452H268.31ZM284.309 207.71V217.308H263.934V207.71H284.309ZM287.471 186.452V196.419H263.934V186.452H287.471ZM312.737 197.706L302.771 240H289.237L305.75 186.452H314.208L312.737 197.706ZM320.534 240L310.568 197.706L308.913 186.452H317.518L334.068 240H320.534ZM320.939 220.03V229.997H297.732V220.03H320.939ZM368.786 230.07V240H346.278V230.07H368.786ZM350.692 186.452V240H338.114V186.452H350.692ZM405.858 230.07V240H382.43V230.07H405.858ZM386.807 186.452V240H374.229V186.452H386.807ZM402.805 207.71V217.308H382.43V207.71H402.805ZM405.968 186.452V196.419H382.43V186.452H405.968ZM411.043 186.452H429.358C432.938 186.452 436.039 187.065 438.663 188.291C441.286 189.517 443.297 191.331 444.694 193.734C446.116 196.137 446.827 199.104 446.827 202.634C446.827 205.699 446.435 208.261 445.651 210.321C444.891 212.38 443.812 214.084 442.414 215.433C441.017 216.757 439.374 217.848 437.486 218.706L433.404 221.096H419.024L418.95 211.13H429.064C430.216 211.13 431.173 210.836 431.933 210.247C432.693 209.659 433.257 208.825 433.624 207.746C434.017 206.643 434.213 205.331 434.213 203.811C434.213 202.266 434.029 200.942 433.661 199.839C433.293 198.736 432.754 197.89 432.043 197.302C431.356 196.713 430.462 196.419 429.358 196.419H423.621V240H411.043V186.452ZM434.765 240L425.276 216.315L438.589 216.242L448.262 239.448V240H434.765Z" fill="#F4E1CC"/>
<path d="M198.029 159.385L206.267 118.452H220.39L205.532 172H196.484L198.029 159.385ZM191.115 118.452L199.39 159.385L201.008 172H191.85L177.066 118.452H191.115ZM241.831 129.706L231.864 172H218.33L234.843 118.452H243.302L241.831 129.706ZM249.628 172L239.661 129.706L238.006 118.452H246.612L263.162 172H249.628ZM250.032 152.03V161.997H226.826V152.03H250.032ZM291.333 153.869H303.911C303.935 157.89 303.151 161.322 301.557 164.166C299.988 166.986 297.769 169.119 294.9 170.566C292.032 172.012 288.673 172.736 284.823 172.736C281.71 172.736 278.951 172.196 276.549 171.117C274.146 170.039 272.123 168.469 270.48 166.41C268.838 164.35 267.599 161.862 266.766 158.944C265.932 156.002 265.515 152.667 265.515 148.941V141.475C265.515 137.773 265.957 134.45 266.839 131.508C267.746 128.566 269.021 126.065 270.664 124.006C272.331 121.946 274.342 120.377 276.696 119.298C279.074 118.219 281.722 117.68 284.64 117.68C288.734 117.68 292.191 118.452 295.011 119.997C297.855 121.517 300.037 123.724 301.557 126.617C303.077 129.485 303.886 132.93 303.984 136.951H291.407C291.529 134.622 291.382 132.795 290.965 131.471C290.548 130.123 289.813 129.179 288.759 128.64C287.729 128.076 286.356 127.794 284.64 127.794C283.463 127.794 282.47 128.027 281.661 128.492C280.851 128.958 280.202 129.731 279.711 130.809C279.221 131.864 278.865 133.261 278.645 135.002C278.424 136.743 278.314 138.876 278.314 141.401V148.941C278.314 151.515 278.4 153.673 278.571 155.413C278.743 157.154 279.062 158.564 279.527 159.643C280.018 160.697 280.68 161.457 281.513 161.923C282.372 162.389 283.475 162.622 284.823 162.622C286.245 162.622 287.459 162.389 288.464 161.923C289.47 161.433 290.23 160.562 290.745 159.312C291.259 158.037 291.456 156.223 291.333 153.869ZM333.112 118.452H345.727V154.899C345.727 159.067 344.979 162.475 343.483 165.123C341.988 167.746 339.891 169.671 337.194 170.897C334.497 172.123 331.31 172.736 327.632 172.736C323.979 172.736 320.792 172.123 318.07 170.897C315.349 169.671 313.216 167.746 311.671 165.123C310.151 162.475 309.391 159.067 309.391 154.899V118.452H322.042V154.899C322.042 157.105 322.238 158.785 322.631 159.937C323.047 161.065 323.673 161.825 324.506 162.217C325.34 162.61 326.382 162.806 327.632 162.806C328.907 162.806 329.949 162.61 330.758 162.217C331.567 161.825 332.156 161.065 332.524 159.937C332.916 158.785 333.112 157.105 333.112 154.899V118.452ZM376.656 118.452H389.271V154.899C389.271 159.067 388.523 162.475 387.028 165.123C385.532 167.746 383.436 169.671 380.739 170.897C378.042 172.123 374.854 172.736 371.177 172.736C367.523 172.736 364.336 172.123 361.614 170.897C358.893 169.671 356.76 167.746 355.215 165.123C353.695 162.475 352.935 159.067 352.935 154.899V118.452H365.586V154.899C365.586 157.105 365.783 158.785 366.175 159.937C366.592 161.065 367.217 161.825 368.05 162.217C368.884 162.61 369.926 162.806 371.177 162.806C372.451 162.806 373.494 162.61 374.303 162.217C375.112 161.825 375.7 161.065 376.068 159.937C376.46 158.785 376.656 157.105 376.656 154.899V118.452ZM402.879 118.452H413.066L421.488 155.708L429.91 118.452H440.06L425.644 172H417.332L402.879 118.452ZM396.59 118.452H407.145L409.168 159.496V172H396.59V118.452ZM435.794 118.452H446.386V172H433.772V159.496L435.794 118.452Z" fill="#F4E1CC"/>
<line x1="348.926" y1="256.715" x2="450.101" y2="256.715" stroke="#F4E1CC" stroke-width="10.5705"/>
</svg>
