<svg width="451" height="262" viewBox="0 0 451 262" fill="none" xmlns="http://www.w3.org/2000/svg">
<rect x="1" y="1" width="66.5388" height="25" rx="8.25" stroke="#185853" stroke-width="1.5"/>
<path d="M1 19L2.3575 23.9372C3.34214 27.5183 6.59829 30 10.3123 30H58.2265C61.9405 30 65.1966 27.5183 66.1813 23.9372L67.5388 19" stroke="#185853" stroke-width="1.5" stroke-linecap="round"/>
<circle cx="19.2287" cy="13.2917" r="1.54167" stroke="#185853" stroke-width="1.5"/>
<circle cx="26.8122" cy="13.2917" r="1.54167" stroke="#185853" stroke-width="1.5"/>
<circle cx="34.3952" cy="13.2917" r="1.54167" stroke="#185853" stroke-width="1.5"/>
<circle cx="41.9787" cy="13.2917" r="1.54167" stroke="#185853" stroke-width="1.5"/>
<circle cx="49.5622" cy="13.2917" r="1.54167" stroke="#185853" stroke-width="1.5"/>
<path d="M17.2188 50.4522V104H4.64095V50.4522H17.2188ZM33.6583 72.7393V82.6692H13.7985V72.7393H33.6583ZM35.1661 50.4522V60.4189H13.7985V50.4522H35.1661ZM79.3725 73.2174V81.3084C79.3725 85.1578 78.8944 88.5413 77.9381 91.4589C76.9819 94.3766 75.6212 96.8284 73.8559 98.8144C72.0906 100.776 69.9942 102.259 67.5669 103.264C65.1642 104.245 62.4917 104.736 59.5495 104.736C56.5828 104.736 53.8858 104.245 51.4585 103.264C49.0312 102.259 46.9349 100.776 45.1696 98.8144C43.4042 96.8284 42.0435 94.3766 41.0873 91.4589C40.1311 88.5413 39.653 85.1578 39.653 81.3084V73.2174C39.653 69.368 40.1311 65.9723 41.0873 63.0301C42.0435 60.0879 43.392 57.6361 45.1328 55.6746C46.8981 53.7131 48.9944 52.2298 51.4217 51.2245C53.849 50.2193 56.546 49.7167 59.5127 49.7167C62.4549 49.7167 65.1396 50.2193 67.5669 51.2245C70.0188 52.2298 72.1151 53.7131 73.8559 55.6746C75.5967 57.6361 76.9452 60.0879 77.9014 63.0301C78.8821 65.9723 79.3725 69.368 79.3725 73.2174ZM66.6107 81.3084V73.1438C66.6107 70.741 66.4636 68.6938 66.1694 67.002C65.8752 65.3103 65.4339 63.9372 64.8454 62.883C64.257 61.8287 63.5214 61.0564 62.6388 60.566C61.7561 60.0756 60.7141 59.8304 59.5127 59.8304C58.2623 59.8304 57.1957 60.0756 56.3131 60.566C55.4304 61.0564 54.6949 61.8287 54.1064 62.883C53.5425 63.9372 53.1257 65.3103 52.856 67.002C52.5863 68.6938 52.4515 70.741 52.4515 73.1438V81.3084C52.4515 83.6867 52.5863 85.7217 52.856 87.4134C53.1257 89.0807 53.5425 90.4537 54.1064 91.5325C54.6949 92.6113 55.4427 93.4081 56.3499 93.923C57.257 94.4134 58.3236 94.6586 59.5495 94.6586C60.7264 94.6586 61.7561 94.4134 62.6388 93.923C63.546 93.4081 64.2815 92.6113 64.8454 91.5325C65.4339 90.4537 65.8752 89.0807 66.1694 87.4134C66.4636 85.7217 66.6107 83.6867 66.6107 81.3084ZM124.829 73.2174V81.3084C124.829 85.1578 124.351 88.5413 123.395 91.4589C122.439 94.3766 121.078 96.8284 119.313 98.8144C117.547 100.776 115.451 102.259 113.024 103.264C110.621 104.245 107.948 104.736 105.006 104.736C102.04 104.736 99.3425 104.245 96.9152 103.264C94.4879 102.259 92.3916 100.776 90.6263 98.8144C88.861 96.8284 87.5002 94.3766 86.544 91.4589C85.5878 88.5413 85.1097 85.1578 85.1097 81.3084V73.2174C85.1097 69.368 85.5878 65.9723 86.544 63.0301C87.5002 60.0879 88.8488 57.6361 90.5895 55.6746C92.3549 53.7131 94.4512 52.2298 96.8785 51.2245C99.3058 50.2193 102.003 49.7167 104.969 49.7167C107.912 49.7167 110.596 50.2193 113.024 51.2245C115.476 52.2298 117.572 53.7131 119.313 55.6746C121.053 57.6361 122.402 60.0879 123.358 63.0301C124.339 65.9723 124.829 69.368 124.829 73.2174ZM112.067 81.3084V73.1438C112.067 70.741 111.92 68.6938 111.626 67.002C111.332 65.3103 110.891 63.9372 110.302 62.883C109.714 61.8287 108.978 61.0564 108.096 60.566C107.213 60.0756 106.171 59.8304 104.969 59.8304C103.719 59.8304 102.653 60.0756 101.77 60.566C100.887 61.0564 100.152 61.8287 99.5632 62.883C98.9993 63.9372 98.5825 65.3103 98.3128 67.002C98.0431 68.6938 97.9082 70.741 97.9082 73.1438V81.3084C97.9082 83.6867 98.0431 85.7217 98.3128 87.4134C98.5825 89.0807 98.9993 90.4537 99.5632 91.5325C100.152 92.6113 100.899 93.4081 101.807 93.923C102.714 94.4134 103.78 94.6586 105.006 94.6586C106.183 94.6586 107.213 94.4134 108.096 93.923C109.003 93.4081 109.738 92.6113 110.302 91.5325C110.891 90.4537 111.332 89.0807 111.626 87.4134C111.92 85.7217 112.067 83.6867 112.067 81.3084ZM146.418 104H136.598L136.672 94.0701H146.418C148.256 94.0701 149.752 93.6656 150.904 92.8565C152.081 92.0474 152.952 90.7111 153.516 88.8477C154.079 86.9598 154.361 84.4467 154.361 81.3084V73.1071C154.361 70.7533 154.202 68.7673 153.883 67.1491C153.589 65.5309 153.123 64.2315 152.486 63.2507C151.848 62.27 151.002 61.559 149.948 61.1176C148.894 60.6518 147.643 60.4189 146.197 60.4189H136.414V50.4522H146.197C149.335 50.4522 152.179 50.9671 154.729 51.9969C157.304 53.0021 159.522 54.4977 161.386 56.4837C163.249 58.4452 164.684 60.8234 165.689 63.6185C166.694 66.4136 167.197 69.6009 167.197 73.1806V81.3084C167.197 84.8635 166.694 88.0509 165.689 90.8705C164.684 93.6656 163.249 96.0438 161.386 98.0053C159.547 99.9668 157.353 101.462 154.803 102.492C152.277 103.497 149.482 104 146.418 104ZM143.953 50.4522V104H131.376V50.4522H143.953ZM27.1119 225.767C27.1119 224.934 27.0261 224.186 26.8545 223.524C26.7073 222.837 26.4009 222.2 25.935 221.611C25.4937 221.023 24.8194 220.434 23.9123 219.846C23.0051 219.233 21.7914 218.596 20.2713 217.934C18.3589 217.149 16.4833 216.266 14.6444 215.286C12.8055 214.28 11.1505 213.116 9.67945 211.792C8.23287 210.443 7.06826 208.874 6.1856 207.084C5.30295 205.27 4.86162 203.161 4.86162 200.759C4.86162 198.454 5.30295 196.382 6.1856 194.543C7.09278 192.68 8.33095 191.098 9.90011 189.799C11.4938 188.475 13.3694 187.47 15.527 186.783C17.6846 186.072 20.0384 185.717 22.5883 185.717C25.9718 185.717 28.9508 186.403 31.5252 187.776C34.1241 189.125 36.1469 191.049 37.5934 193.55C39.0645 196.027 39.8001 198.957 39.8001 202.34H27.259C27.259 200.992 27.0874 199.802 26.7441 198.773C26.4009 197.743 25.8615 196.934 25.1259 196.345C24.4149 195.757 23.4709 195.463 22.2941 195.463C21.2398 195.463 20.3449 195.708 19.6093 196.198C18.8983 196.689 18.3589 197.351 17.9911 198.184C17.6233 198.993 17.4395 199.888 17.4395 200.869C17.4395 201.678 17.6233 202.414 17.9911 203.076C18.3589 203.713 18.8615 204.314 19.499 204.878C20.161 205.442 20.921 205.981 21.7792 206.496C22.6618 207.011 23.6058 207.513 24.611 208.004C27.0383 208.911 29.1837 209.928 31.0471 211.056C32.935 212.16 34.5164 213.422 35.7913 214.844C37.0663 216.242 38.0225 217.836 38.66 219.625C39.322 221.415 39.653 223.438 39.653 225.694C39.653 228.096 39.2607 230.229 38.4761 232.093C37.716 233.956 36.6004 235.538 35.1294 236.837C33.6583 238.112 31.8807 239.081 29.7966 239.743C27.7371 240.405 25.4079 240.736 22.8089 240.736C20.4307 240.736 18.0892 240.392 15.7845 239.706C13.5043 238.995 11.4325 237.916 9.56911 236.469C7.73025 234.998 6.25916 233.123 5.15584 230.842C4.05252 228.538 3.50086 225.804 3.50086 222.641H16.1523C16.1523 224.21 16.2748 225.534 16.52 226.613C16.7652 227.692 17.1452 228.562 17.6601 229.224C18.1995 229.862 18.886 230.328 19.7197 230.622C20.5533 230.891 21.583 231.026 22.8089 231.026C23.9368 231.026 24.8072 230.793 25.4201 230.328C26.0576 229.837 26.4989 229.2 26.7441 228.415C26.9893 227.606 27.1119 226.723 27.1119 225.767ZM77.7543 230.07V240H54.3271V230.07H77.7543ZM58.7036 186.452V240H46.1258V186.452H58.7036ZM74.7017 207.71V217.308H54.3271V207.71H74.7017ZM77.8646 186.452V196.419H54.3271V186.452H77.8646ZM103.131 197.706L93.164 240H79.6299L96.1429 186.452H104.602L103.131 197.706ZM110.927 240L100.961 197.706L99.3058 186.452H107.912L124.461 240H110.927ZM111.332 220.03V229.997H88.1255V220.03H111.332ZM159.179 230.07V240H136.672V230.07H159.179ZM141.085 186.452V240H128.507V186.452H141.085ZM196.251 230.07V240H172.824V230.07H196.251ZM177.2 186.452V240H164.622V186.452H177.2ZM193.198 207.71V217.308H172.824V207.71H193.198ZM196.361 186.452V196.419H172.824V186.452H196.361ZM201.436 186.452H219.751C223.331 186.452 226.433 187.065 229.056 188.291C231.68 189.517 233.69 191.331 235.088 193.734C236.51 196.137 237.221 199.104 237.221 202.634C237.221 205.699 236.828 208.261 236.044 210.321C235.284 212.38 234.205 214.084 232.807 215.433C231.41 216.757 229.767 217.848 227.879 218.706L223.797 221.096H209.417L209.344 211.13H219.457C220.61 211.13 221.566 210.836 222.326 210.247C223.086 209.659 223.65 208.825 224.018 207.746C224.41 206.643 224.606 205.331 224.606 203.811C224.606 202.266 224.422 200.942 224.054 199.839C223.687 198.736 223.147 197.89 222.436 197.302C221.75 196.713 220.855 196.419 219.751 196.419H214.014V240H201.436V186.452ZM225.158 240L215.669 216.315L228.983 216.242L238.655 239.448V240H225.158Z" fill="#185853"/>
<path d="M22.3308 159.385L30.569 118.452H44.6915L29.8334 172H20.7862L22.3308 159.385ZM15.4167 118.452L23.6916 159.385L25.3098 172H16.1523L1.36777 118.452H15.4167ZM66.1326 129.706L56.166 172H42.6319L59.1449 118.452H67.6037L66.1326 129.706ZM73.9294 172L63.9628 129.706L62.3078 118.452H70.9137L87.4635 172H73.9294ZM74.334 152.03V161.997H51.1275V152.03H74.334ZM115.635 153.869H128.213C128.237 157.89 127.453 161.322 125.859 164.166C124.29 166.986 122.071 169.119 119.202 170.566C116.334 172.012 112.975 172.736 109.125 172.736C106.011 172.736 103.253 172.196 100.85 171.117C98.4476 170.039 96.4249 168.469 94.7822 166.41C93.1394 164.35 91.9013 161.862 91.0676 158.944C90.234 156.002 89.8172 152.667 89.8172 148.941V141.475C89.8172 137.773 90.2585 134.45 91.1412 131.508C92.0484 128.566 93.3233 126.065 94.966 124.006C96.6333 121.946 98.6438 120.377 100.998 119.298C103.376 118.219 106.024 117.68 108.941 117.68C113.036 117.68 116.493 118.452 119.313 119.997C122.157 121.517 124.339 123.724 125.859 126.617C127.379 129.485 128.188 132.93 128.286 136.951H115.708C115.831 134.622 115.684 132.795 115.267 131.471C114.85 130.123 114.115 129.179 113.06 128.64C112.031 128.076 110.658 127.794 108.941 127.794C107.765 127.794 106.772 128.027 105.962 128.492C105.153 128.958 104.504 129.731 104.013 130.809C103.523 131.864 103.167 133.261 102.947 135.002C102.726 136.743 102.616 138.876 102.616 141.401V148.941C102.616 151.515 102.702 153.673 102.873 155.413C103.045 157.154 103.364 158.564 103.829 159.643C104.32 160.697 104.982 161.457 105.815 161.923C106.673 162.389 107.777 162.622 109.125 162.622C110.547 162.622 111.761 162.389 112.766 161.923C113.772 161.433 114.532 160.562 115.046 159.312C115.561 158.037 115.757 156.223 115.635 153.869ZM157.414 118.452H170.029V154.899C170.029 159.067 169.281 162.475 167.785 165.123C166.29 167.746 164.193 169.671 161.496 170.897C158.799 172.123 155.612 172.736 151.934 172.736C148.281 172.736 145.094 172.123 142.372 170.897C139.65 169.671 137.517 167.746 135.973 165.123C134.453 162.475 133.693 159.067 133.693 154.899V118.452H146.344V154.899C146.344 157.105 146.54 158.785 146.932 159.937C147.349 161.065 147.974 161.825 148.808 162.217C149.642 162.61 150.684 162.806 151.934 162.806C153.209 162.806 154.251 162.61 155.06 162.217C155.869 161.825 156.458 161.065 156.825 159.937C157.218 158.785 157.414 157.105 157.414 154.899V118.452ZM200.958 118.452H213.573V154.899C213.573 159.067 212.825 162.475 211.329 165.123C209.834 167.746 207.738 169.671 205.041 170.897C202.344 172.123 199.156 172.736 195.478 172.736C191.825 172.736 188.638 172.123 185.916 170.897C183.195 169.671 181.062 167.746 179.517 165.123C177.997 162.475 177.237 159.067 177.237 154.899V118.452H189.888V154.899C189.888 157.105 190.084 158.785 190.477 159.937C190.894 161.065 191.519 161.825 192.352 162.217C193.186 162.61 194.228 162.806 195.478 162.806C196.753 162.806 197.795 162.61 198.605 162.217C199.414 161.825 200.002 161.065 200.37 159.937C200.762 158.785 200.958 157.105 200.958 154.899V118.452ZM227.181 118.452H237.368L245.79 155.708L254.212 118.452H264.362L249.946 172H241.634L227.181 118.452ZM220.892 118.452H231.447L233.469 159.496V172H220.892V118.452ZM260.096 118.452H270.688V172H258.073V159.496L260.096 118.452Z" fill="#EF9221"/>
<line x1="1" y1="256.715" x2="102.174" y2="256.715" stroke="#EF9221" stroke-width="10.5705"/>
</svg>
