<svg width="275" height="282" viewBox="0 0 275 282" fill="none" xmlns="http://www.w3.org/2000/svg">
<rect x="1" y="1" width="66.5388" height="25" rx="8.25" stroke="#226963" stroke-width="1.5"/>
<path d="M1 19L2.3575 23.9372C3.34214 27.5183 6.59829 30 10.3123 30H58.2265C61.9405 30 65.1966 27.5183 66.1813 23.9372L67.5388 19" stroke="#226963" stroke-width="1.5" stroke-linecap="round"/>
<circle cx="19.2287" cy="13.2917" r="1.54167" stroke="#226963" stroke-width="1.5"/>
<circle cx="26.8122" cy="13.2917" r="1.54167" stroke="#226963" stroke-width="1.5"/>
<circle cx="34.3952" cy="13.2917" r="1.54167" stroke="#226963" stroke-width="1.5"/>
<circle cx="41.9787" cy="13.2917" r="1.54167" stroke="#226963" stroke-width="1.5"/>
<circle cx="49.5622" cy="13.2917" r="1.54167" stroke="#226963" stroke-width="1.5"/>
<path d="M17.2188 60.4522V114H4.64095V60.4522H17.2188ZM33.6583 82.7393V92.6692H13.7985V82.7393H33.6583ZM35.1661 60.4522V70.4189H13.7985V60.4522H35.1661ZM79.3725 83.2174V91.3084C79.3725 95.1578 78.8944 98.5413 77.9381 101.459C76.9819 104.377 75.6212 106.828 73.8559 108.814C72.0906 110.776 69.9942 112.259 67.5669 113.264C65.1642 114.245 62.4917 114.736 59.5495 114.736C56.5828 114.736 53.8858 114.245 51.4585 113.264C49.0312 112.259 46.9349 110.776 45.1696 108.814C43.4042 106.828 42.0435 104.377 41.0873 101.459C40.1311 98.5413 39.653 95.1578 39.653 91.3084V83.2174C39.653 79.368 40.1311 75.9723 41.0873 73.0301C42.0435 70.0879 43.392 67.6361 45.1328 65.6746C46.8981 63.7131 48.9944 62.2298 51.4217 61.2245C53.849 60.2193 56.546 59.7167 59.5127 59.7167C62.4549 59.7167 65.1396 60.2193 67.5669 61.2245C70.0188 62.2298 72.1151 63.7131 73.8559 65.6746C75.5967 67.6361 76.9452 70.0879 77.9014 73.0301C78.8821 75.9723 79.3725 79.368 79.3725 83.2174ZM66.6107 91.3084V83.1438C66.6107 80.741 66.4636 78.6938 66.1694 77.002C65.8752 75.3103 65.4339 73.9372 64.8454 72.883C64.257 71.8287 63.5214 71.0564 62.6388 70.566C61.7561 70.0756 60.7141 69.8304 59.5127 69.8304C58.2623 69.8304 57.1957 70.0756 56.3131 70.566C55.4304 71.0564 54.6949 71.8287 54.1064 72.883C53.5425 73.9372 53.1257 75.3103 52.856 77.002C52.5863 78.6938 52.4515 80.741 52.4515 83.1438V91.3084C52.4515 93.6867 52.5863 95.7217 52.856 97.4134C53.1257 99.0807 53.5425 100.454 54.1064 101.532C54.6949 102.611 55.4427 103.408 56.3499 103.923C57.257 104.413 58.3236 104.659 59.5495 104.659C60.7264 104.659 61.7561 104.413 62.6388 103.923C63.546 103.408 64.2815 102.611 64.8454 101.532C65.4339 100.454 65.8752 99.0807 66.1694 97.4134C66.4636 95.7217 66.6107 93.6867 66.6107 91.3084ZM124.829 83.2174V91.3084C124.829 95.1578 124.351 98.5413 123.395 101.459C122.439 104.377 121.078 106.828 119.313 108.814C117.547 110.776 115.451 112.259 113.024 113.264C110.621 114.245 107.948 114.736 105.006 114.736C102.04 114.736 99.3425 114.245 96.9152 113.264C94.4879 112.259 92.3916 110.776 90.6263 108.814C88.861 106.828 87.5002 104.377 86.544 101.459C85.5878 98.5413 85.1097 95.1578 85.1097 91.3084V83.2174C85.1097 79.368 85.5878 75.9723 86.544 73.0301C87.5002 70.0879 88.8488 67.6361 90.5895 65.6746C92.3549 63.7131 94.4512 62.2298 96.8785 61.2245C99.3058 60.2193 102.003 59.7167 104.969 59.7167C107.912 59.7167 110.596 60.2193 113.024 61.2245C115.476 62.2298 117.572 63.7131 119.313 65.6746C121.053 67.6361 122.402 70.0879 123.358 73.0301C124.339 75.9723 124.829 79.368 124.829 83.2174ZM112.067 91.3084V83.1438C112.067 80.741 111.92 78.6938 111.626 77.002C111.332 75.3103 110.891 73.9372 110.302 72.883C109.714 71.8287 108.978 71.0564 108.096 70.566C107.213 70.0756 106.171 69.8304 104.969 69.8304C103.719 69.8304 102.653 70.0756 101.77 70.566C100.887 71.0564 100.152 71.8287 99.5632 72.883C98.9993 73.9372 98.5825 75.3103 98.3128 77.002C98.0431 78.6938 97.9082 80.741 97.9082 83.1438V91.3084C97.9082 93.6867 98.0431 95.7217 98.3128 97.4134C98.5825 99.0807 98.9993 100.454 99.5632 101.532C100.152 102.611 100.899 103.408 101.807 103.923C102.714 104.413 103.78 104.659 105.006 104.659C106.183 104.659 107.213 104.413 108.096 103.923C109.003 103.408 109.738 102.611 110.302 101.532C110.891 100.454 111.332 99.0807 111.626 97.4134C111.92 95.7217 112.067 93.6867 112.067 91.3084ZM146.418 114H136.598L136.672 104.07H146.418C148.256 104.07 149.752 103.666 150.904 102.856C152.081 102.047 152.952 100.711 153.516 98.8477C154.079 96.9598 154.361 94.4467 154.361 91.3084V83.1071C154.361 80.7533 154.202 78.7673 153.883 77.1491C153.589 75.5309 153.123 74.2315 152.486 73.2507C151.848 72.27 151.002 71.559 149.948 71.1176C148.894 70.6518 147.643 70.4189 146.197 70.4189H136.414V60.4522H146.197C149.335 60.4522 152.179 60.9671 154.729 61.9969C157.304 63.0021 159.522 64.4977 161.386 66.4837C163.249 68.4452 164.684 70.8234 165.689 73.6185C166.694 76.4136 167.197 79.6009 167.197 83.1806V91.3084C167.197 94.8635 166.694 98.0509 165.689 100.87C164.684 103.666 163.249 106.044 161.386 108.005C159.547 109.967 157.353 111.462 154.803 112.492C152.277 113.497 149.482 114 146.418 114ZM143.953 60.4522V114H131.376V60.4522H143.953ZM22.3308 169.385L30.569 128.452H44.6915L29.8334 182H20.7862L22.3308 169.385ZM15.4167 128.452L23.6916 169.385L25.3098 182H16.1523L1.36777 128.452H15.4167ZM66.1326 139.706L56.166 182H42.6319L59.1449 128.452H67.6037L66.1326 139.706ZM73.9294 182L63.9628 139.706L62.3078 128.452H70.9137L87.4635 182H73.9294ZM74.334 162.03V171.997H51.1275V162.03H74.334ZM115.635 163.869H128.213C128.237 167.89 127.453 171.322 125.859 174.166C124.29 176.986 122.071 179.119 119.202 180.566C116.334 182.012 112.975 182.736 109.125 182.736C106.011 182.736 103.253 182.196 100.85 181.117C98.4476 180.039 96.4249 178.469 94.7822 176.41C93.1394 174.35 91.9013 171.862 91.0676 168.944C90.234 166.002 89.8172 162.667 89.8172 158.941V151.475C89.8172 147.773 90.2585 144.45 91.1412 141.508C92.0484 138.566 93.3233 136.065 94.966 134.006C96.6333 131.946 98.6438 130.377 100.998 129.298C103.376 128.219 106.024 127.68 108.941 127.68C113.036 127.68 116.493 128.452 119.313 129.997C122.157 131.517 124.339 133.724 125.859 136.617C127.379 139.485 128.188 142.93 128.286 146.951H115.708C115.831 144.622 115.684 142.795 115.267 141.471C114.85 140.123 114.115 139.179 113.06 138.64C112.031 138.076 110.658 137.794 108.941 137.794C107.765 137.794 106.772 138.027 105.962 138.492C105.153 138.958 104.504 139.731 104.013 140.809C103.523 141.864 103.167 143.261 102.947 145.002C102.726 146.743 102.616 148.876 102.616 151.401V158.941C102.616 161.515 102.702 163.673 102.873 165.413C103.045 167.154 103.364 168.564 103.829 169.643C104.32 170.697 104.982 171.457 105.815 171.923C106.673 172.389 107.777 172.622 109.125 172.622C110.547 172.622 111.761 172.389 112.766 171.923C113.772 171.433 114.532 170.562 115.046 169.312C115.561 168.037 115.757 166.223 115.635 163.869ZM157.414 128.452H170.029V164.899C170.029 169.067 169.281 172.475 167.785 175.123C166.29 177.746 164.193 179.671 161.496 180.897C158.799 182.123 155.612 182.736 151.934 182.736C148.281 182.736 145.094 182.123 142.372 180.897C139.65 179.671 137.517 177.746 135.973 175.123C134.453 172.475 133.693 169.067 133.693 164.899V128.452H146.344V164.899C146.344 167.105 146.54 168.785 146.932 169.937C147.349 171.065 147.974 171.825 148.808 172.217C149.642 172.61 150.684 172.806 151.934 172.806C153.209 172.806 154.251 172.61 155.06 172.217C155.869 171.825 156.458 171.065 156.825 169.937C157.218 168.785 157.414 167.105 157.414 164.899V128.452ZM200.958 128.452H213.573V164.899C213.573 169.067 212.825 172.475 211.329 175.123C209.834 177.746 207.738 179.671 205.041 180.897C202.344 182.123 199.156 182.736 195.478 182.736C191.825 182.736 188.638 182.123 185.916 180.897C183.195 179.671 181.062 177.746 179.517 175.123C177.997 172.475 177.237 169.067 177.237 164.899V128.452H189.888V164.899C189.888 167.105 190.084 168.785 190.477 169.937C190.894 171.065 191.519 171.825 192.352 172.217C193.186 172.61 194.228 172.806 195.478 172.806C196.753 172.806 197.795 172.61 198.605 172.217C199.414 171.825 200.002 171.065 200.37 169.937C200.762 168.785 200.958 167.105 200.958 164.899V128.452ZM227.181 128.452H237.368L245.79 165.708L254.212 128.452H264.362L249.946 182H241.634L227.181 128.452ZM220.892 128.452H231.447L233.469 169.496V182H220.892V128.452ZM260.096 128.452H270.688V182H258.073V169.496L260.096 128.452ZM27.1119 235.767C27.1119 234.934 27.0261 234.186 26.8545 233.524C26.7073 232.837 26.4009 232.2 25.935 231.611C25.4937 231.023 24.8194 230.434 23.9123 229.846C23.0051 229.233 21.7914 228.596 20.2713 227.934C18.3589 227.149 16.4833 226.266 14.6444 225.286C12.8055 224.28 11.1505 223.116 9.67945 221.792C8.23287 220.443 7.06826 218.874 6.1856 217.084C5.30295 215.27 4.86162 213.161 4.86162 210.759C4.86162 208.454 5.30295 206.382 6.1856 204.543C7.09278 202.68 8.33095 201.098 9.90011 199.799C11.4938 198.475 13.3694 197.47 15.527 196.783C17.6846 196.072 20.0384 195.717 22.5883 195.717C25.9718 195.717 28.9508 196.403 31.5252 197.776C34.1241 199.125 36.1469 201.049 37.5934 203.55C39.0645 206.027 39.8001 208.957 39.8001 212.34H27.259C27.259 210.992 27.0874 209.802 26.7441 208.773C26.4009 207.743 25.8615 206.934 25.1259 206.345C24.4149 205.757 23.4709 205.463 22.2941 205.463C21.2398 205.463 20.3449 205.708 19.6093 206.198C18.8983 206.689 18.3589 207.351 17.9911 208.184C17.6233 208.993 17.4395 209.888 17.4395 210.869C17.4395 211.678 17.6233 212.414 17.9911 213.076C18.3589 213.713 18.8615 214.314 19.499 214.878C20.161 215.442 20.921 215.981 21.7792 216.496C22.6618 217.011 23.6058 217.513 24.611 218.004C27.0383 218.911 29.1837 219.928 31.0471 221.056C32.935 222.16 34.5164 223.422 35.7913 224.844C37.0663 226.242 38.0225 227.836 38.66 229.625C39.322 231.415 39.653 233.438 39.653 235.694C39.653 238.096 39.2607 240.229 38.4761 242.093C37.716 243.956 36.6004 245.538 35.1294 246.837C33.6583 248.112 31.8807 249.081 29.7966 249.743C27.7371 250.405 25.4079 250.736 22.8089 250.736C20.4307 250.736 18.0892 250.392 15.7845 249.706C13.5043 248.995 11.4325 247.916 9.56911 246.469C7.73025 244.998 6.25916 243.123 5.15584 240.842C4.05252 238.538 3.50086 235.804 3.50086 232.641H16.1523C16.1523 234.21 16.2748 235.534 16.52 236.613C16.7652 237.692 17.1452 238.562 17.6601 239.224C18.1995 239.862 18.886 240.328 19.7197 240.622C20.5533 240.891 21.583 241.026 22.8089 241.026C23.9368 241.026 24.8072 240.793 25.4201 240.328C26.0576 239.837 26.4989 239.2 26.7441 238.415C26.9893 237.606 27.1119 236.723 27.1119 235.767ZM77.7543 240.07V250H54.3271V240.07H77.7543ZM58.7036 196.452V250H46.1258V196.452H58.7036ZM74.7017 217.71V227.308H54.3271V217.71H74.7017ZM77.8646 196.452V206.419H54.3271V196.452H77.8646ZM103.131 207.706L93.164 250H79.6299L96.1429 196.452H104.602L103.131 207.706ZM110.927 250L100.961 207.706L99.3058 196.452H107.912L124.461 250H110.927ZM111.332 230.03V239.997H88.1255V230.03H111.332ZM159.179 240.07V250H136.672V240.07H159.179ZM141.085 196.452V250H128.507V196.452H141.085ZM196.251 240.07V250H172.824V240.07H196.251ZM177.2 196.452V250H164.622V196.452H177.2ZM193.198 217.71V227.308H172.824V217.71H193.198ZM196.361 196.452V206.419H172.824V196.452H196.361ZM201.436 196.452H219.751C223.331 196.452 226.433 197.065 229.056 198.291C231.68 199.517 233.69 201.331 235.088 203.734C236.51 206.137 237.221 209.104 237.221 212.634C237.221 215.699 236.828 218.261 236.044 220.321C235.284 222.38 234.205 224.084 232.807 225.433C231.41 226.757 229.767 227.848 227.879 228.706L223.797 231.096H209.417L209.344 221.13H219.457C220.61 221.13 221.566 220.836 222.326 220.247C223.086 219.659 223.65 218.825 224.018 217.746C224.41 216.643 224.606 215.331 224.606 213.811C224.606 212.266 224.422 210.942 224.054 209.839C223.687 208.736 223.147 207.89 222.436 207.302C221.75 206.713 220.855 206.419 219.751 206.419H214.014V250H201.436V196.452ZM225.158 250L215.669 226.315L228.983 226.242L238.655 249.448V250H225.158Z" fill="#226963"/>
<line x1="1" y1="276.715" x2="102.174" y2="276.715" stroke="#226963" stroke-width="10.5705"/>
</svg>
